<svg width="33" height="32" viewBox="0 0 33 32" fill="none" xmlns="http://www.w3.org/2000/svg">
<path d="M16.5275 2.66663C24.3375 2.66663 30.25 8.87594 30.25 15.9799C30.25 24.219 23.32 29.3333 16.5 29.3333C14.245 29.3333 11.7425 28.7457 9.735 27.5974C9.03375 27.1834 8.4425 26.8763 7.68625 27.1166L4.90875 27.9178C4.2075 28.1315 3.575 27.5974 3.78125 26.8763L4.7025 23.8851C4.85375 23.4712 4.82625 23.0305 4.60625 22.6833C3.42375 20.5735 2.75 18.2634 2.75 16.02C2.75 8.99612 8.53875 2.66663 16.5275 2.66663ZM22.8113 14.3241C21.835 14.3241 21.0513 15.0853 21.0513 16.0333C21.0513 16.9681 21.835 17.7426 22.8113 17.7426C23.7875 17.7426 24.5712 16.9681 24.5712 16.0333C24.5712 15.0853 23.7875 14.3241 22.8113 14.3241ZM16.4725 14.3241C15.51 14.3108 14.7125 15.0853 14.7125 16.02C14.7125 16.9681 15.4962 17.7292 16.4725 17.7426C17.4487 17.7426 18.2325 16.9681 18.2325 16.0333C18.2325 15.0853 17.4487 14.3241 16.4725 14.3241ZM10.1337 14.3241C9.1575 14.3241 8.37375 15.0853 8.37375 16.0333C8.37375 16.9681 9.17125 17.7426 10.1337 17.7426C11.11 17.7292 11.8938 16.9681 11.8938 16.0333C11.8938 15.0853 11.11 14.3241 10.1337 14.3241Z" fill="white"/>
</svg>
