<svg width="169" height="99" viewBox="0 0 169 99" fill="none" xmlns="http://www.w3.org/2000/svg">
<path d="M61.6201 90.7776C61.6671 90.7776 61.7375 90.7542 61.808 90.7542C61.8784 90.7542 61.9254 90.7542 61.9958 90.7542C62.0428 90.7542 62.1132 90.7542 62.1837 90.7542C62.2541 90.7542 62.3245 90.7776 62.3715 90.7776V92.892C62.4654 92.7511 62.6063 92.6101 62.7942 92.4927C62.982 92.3752 63.2168 92.3282 63.4751 92.3282C63.7099 92.3282 63.9213 92.3752 64.1091 92.4457C64.297 92.5161 64.4613 92.6336 64.6022 92.7981C64.7431 92.9625 64.8605 93.1505 64.9309 93.3854C65.0014 93.6203 65.0483 93.9023 65.0483 94.2312C65.0483 94.889 64.8605 95.4058 64.4848 95.7817C64.1091 96.1576 63.569 96.3455 62.8881 96.3455C62.6768 96.3455 62.442 96.3221 62.2071 96.2751C61.9723 96.2281 61.7845 96.1811 61.6201 96.1341V90.7776ZM62.348 95.6408C62.4419 95.6642 62.5359 95.6877 62.6298 95.7112C62.7237 95.7347 62.8411 95.7347 62.9585 95.7347C63.1464 95.7347 63.3108 95.7112 63.4751 95.6408C63.6395 95.5938 63.7569 95.4998 63.8743 95.3823C63.9917 95.2649 64.0856 95.1239 64.1561 94.936C64.2265 94.748 64.25 94.5366 64.25 94.2781C64.25 93.8553 64.1796 93.5499 64.0387 93.3149C63.8978 93.08 63.663 92.9625 63.3107 92.9625C63.1933 92.9625 63.0759 92.986 62.982 93.0095C62.8646 93.0565 62.7707 93.1035 62.6768 93.1975C62.5828 93.2679 62.5124 93.3854 62.442 93.5264C62.395 93.6673 62.348 93.8318 62.348 94.0197V95.6408Z" fill="white"/>
<path d="M67.655 96.2743C67.608 96.2743 67.5845 96.2743 67.5376 96.2743C67.4906 96.2743 67.4436 96.2743 67.4202 96.2743C67.3732 96.2743 67.3262 96.2743 67.2558 96.2743C67.2088 96.2743 67.1619 96.2743 67.1149 96.2743L65.8469 92.4449C65.9174 92.4449 65.9878 92.4214 66.0583 92.4214C66.1287 92.4214 66.1991 92.4214 66.2461 92.4214C66.3165 92.4214 66.387 92.4214 66.4574 92.4214C66.5279 92.4214 66.5983 92.4214 66.6688 92.4449L67.7254 96.0159L68.829 92.4449C68.9229 92.4214 69.0638 92.4214 69.2047 92.4214C69.2517 92.4214 69.3221 92.4214 69.3926 92.4214C69.463 92.4214 69.5335 92.4214 69.6039 92.4449L68.1246 97.073C68.0541 97.2845 67.9837 97.4489 67.9133 97.5899C67.8428 97.7309 67.7489 97.8483 67.655 97.9188C67.561 98.0128 67.4436 98.0598 67.3262 98.1067C67.2088 98.1302 67.0679 98.1537 66.927 98.1537C66.8096 98.1537 66.6922 98.1537 66.5748 98.1302C66.4574 98.1068 66.3635 98.0833 66.2696 98.0598C66.2696 97.9423 66.2696 97.8483 66.2931 97.7544C66.3165 97.6604 66.34 97.5664 66.387 97.4959C66.4339 97.5194 66.5044 97.5194 66.5748 97.5429C66.6453 97.5664 66.7392 97.5664 66.8331 97.5664C66.9036 97.5664 66.9505 97.5664 67.021 97.5429C67.0914 97.5194 67.1384 97.4959 67.1853 97.4724C67.2323 97.4254 67.2793 97.3785 67.3262 97.308C67.3732 97.2375 67.4202 97.1435 67.4436 97.0261L67.655 96.2743Z" fill="white"/>
<path d="M72.8909 90.8719C73.0083 90.8719 73.1022 90.8484 73.1961 90.8484C73.29 90.8484 73.384 90.8249 73.4544 90.8249C73.5483 90.8249 73.6423 90.8014 73.7362 90.8014C73.8301 90.8014 73.924 90.8014 74.0414 90.8014C74.2997 90.8014 74.558 90.8249 74.7928 90.8719C75.0511 90.9189 75.2625 91.0128 75.4503 91.1303C75.6382 91.2478 75.8025 91.4122 75.9199 91.6471C76.0373 91.8821 76.1078 92.117 76.1078 92.4459C76.1078 92.6339 76.0843 92.8218 76.0138 92.9863C75.9434 93.1507 75.873 93.2917 75.7556 93.4091C75.6616 93.5266 75.5442 93.6441 75.4268 93.738C75.3094 93.832 75.1685 93.9025 75.0511 93.973L74.9572 94.02L76.5304 96.2988C76.3895 96.3223 76.2487 96.3223 76.0843 96.3223C75.9434 96.3223 75.826 96.3223 75.6851 96.2988L73.971 93.8085V93.738L74.0414 93.7145C74.1823 93.6911 74.3232 93.6206 74.4641 93.5736C74.605 93.5031 74.7459 93.4326 74.8868 93.3387C75.0042 93.2447 75.1216 93.1272 75.2155 92.9863C75.3094 92.8453 75.3329 92.6808 75.3329 92.4929C75.3329 92.1405 75.2155 91.8586 75.0042 91.6941C74.7928 91.5297 74.5111 91.4357 74.1588 91.4357C74.0649 91.4357 73.9945 91.4357 73.924 91.4357C73.8536 91.4357 73.7597 91.4592 73.6892 91.4592V96.2518C73.6423 96.2518 73.5718 96.2518 73.5014 96.2753C73.4309 96.2753 73.3605 96.2753 73.3135 96.2753C73.2666 96.2753 73.1961 96.2753 73.1257 96.2753C73.0552 96.2753 72.9848 96.2753 72.9378 96.2518V90.8719H72.8909Z" fill="white"/>
<path d="M77.7278 90.8719C77.8922 90.8484 78.1035 90.8249 78.3383 90.8249C78.5731 90.8249 78.8079 90.8014 79.0427 90.8014C79.982 90.8014 80.6864 91.0363 81.156 91.5297C81.6256 91.9995 81.8605 92.7043 81.8605 93.5971C81.8605 94.5368 81.6256 95.2416 81.156 95.6879C80.6864 96.1343 79.9585 96.3692 79.0192 96.3692C78.7844 96.3692 78.5496 96.3692 78.3148 96.3458C78.08 96.3223 77.8922 96.2988 77.7278 96.2753V90.8719ZM78.4792 95.641C78.5496 95.641 78.6435 95.6645 78.7375 95.6645C78.8314 95.6645 78.9488 95.6645 79.0662 95.6645C79.3715 95.6645 79.6298 95.641 79.8646 95.5705C80.0994 95.5 80.3107 95.3825 80.4986 95.2416C80.6629 95.0771 80.8038 94.8657 80.8977 94.5838C80.9917 94.3019 81.0386 93.973 81.0386 93.5736C81.0386 93.1977 80.9917 92.8688 80.8977 92.6104C80.8038 92.3519 80.6629 92.1405 80.4986 91.9526C80.3342 91.7881 80.1229 91.6706 79.888 91.6002C79.6532 91.5297 79.3949 91.4827 79.0897 91.4827C78.9958 91.4827 78.9018 91.4827 78.7844 91.4827C78.667 91.4827 78.5731 91.4827 78.4792 91.5062V95.641Z" fill="white"/>
<path d="M83.1756 95.4525C83.34 95.523 83.5043 95.57 83.6922 95.617C83.88 95.6639 84.0914 95.6874 84.3497 95.6874C84.7488 95.6874 85.0541 95.5935 85.2654 95.429C85.4767 95.2646 85.5707 95.0296 85.5707 94.7477C85.5707 94.6067 85.5472 94.4893 85.5002 94.3953C85.4533 94.3013 85.3828 94.2074 85.3124 94.1369C85.2185 94.0664 85.1245 93.9959 84.9836 93.9489C84.8662 93.8785 84.7019 93.8315 84.5375 93.761L84.1148 93.5965C83.974 93.5261 83.8331 93.4791 83.7157 93.4086C83.5983 93.3381 83.4809 93.2441 83.4104 93.1502C83.3165 93.0562 83.246 92.9152 83.1991 92.7978C83.1521 92.6803 83.1286 92.4924 83.1286 92.3044C83.1286 91.8581 83.293 91.5057 83.5983 91.2472C83.9035 90.9888 84.3496 90.8713 84.8897 90.8713C85.1245 90.8713 85.3593 90.8948 85.5707 90.9418C85.782 90.9888 85.9698 91.0358 86.1342 91.0828C86.1107 91.2942 86.0638 91.5057 85.9698 91.6936C85.829 91.6466 85.6881 91.5996 85.5002 91.5526C85.3124 91.5057 85.1245 91.4822 84.8897 91.4822C84.5845 91.4822 84.3262 91.5526 84.1618 91.6701C83.9974 91.7876 83.9035 91.999 83.9035 92.2339C83.9035 92.3279 83.927 92.4219 83.974 92.5159C84.0209 92.6098 84.0679 92.6803 84.1383 92.7273C84.2088 92.7978 84.2792 92.8448 84.3966 92.8917C84.4905 92.9387 84.5845 92.9857 84.7019 93.0327L85.1245 93.1972C85.3124 93.2676 85.5002 93.3616 85.6646 93.4556C85.829 93.5496 85.9464 93.6435 86.0638 93.761C86.1812 93.8785 86.2516 94.0194 86.3221 94.1839C86.369 94.3483 86.416 94.5363 86.416 94.7477C86.416 95.2646 86.2281 95.6639 85.8759 95.9693C85.5237 96.2748 85.0306 96.4157 84.3966 96.4157C84.2322 96.4157 84.0914 96.4157 83.974 96.3922C83.8565 96.3922 83.7391 96.3687 83.6217 96.3452C83.5043 96.3217 83.4104 96.2982 83.3165 96.2748C83.2226 96.2513 83.1052 96.2043 83.0112 96.1808C83.0112 96.0633 83.0347 95.9693 83.0817 95.8519C83.1052 95.6639 83.1521 95.5465 83.1756 95.4525Z" fill="white"/>
<path d="M92.5677 95.0296H90.5248L90.1491 96.2748C90.0787 96.2748 90.0083 96.2982 89.9613 96.2982C89.8909 96.2982 89.8204 96.2982 89.7734 96.2982C89.703 96.2982 89.6326 96.2982 89.5621 96.2982C89.4917 96.2982 89.4447 96.2748 89.3743 96.2748L91.1354 90.8948C91.2058 90.8948 91.2762 90.8713 91.3467 90.8713C91.4171 90.8713 91.4876 90.8713 91.5815 90.8713C91.6519 90.8713 91.7224 90.8713 91.7928 90.8713C91.8633 90.8713 91.9337 90.8948 92.0042 90.8948L93.7418 96.2748C93.6713 96.2748 93.6244 96.2982 93.5304 96.2982C93.4365 96.2982 93.3895 96.2982 93.3191 96.2982C93.2487 96.2982 93.1782 96.2982 93.1312 96.2982C93.0608 96.2982 92.9904 96.2748 92.9434 96.2748L92.5677 95.0296ZM90.7362 94.3483H92.3799L91.558 91.5996L90.7362 94.3483Z" fill="white"/>
<path d="M94.8455 92.4213C94.8924 92.4213 94.9629 92.3978 95.0098 92.3978C95.0568 92.3978 95.1038 92.3978 95.1742 92.3978C95.2446 92.3978 95.2916 92.3978 95.3386 92.3978C95.3855 92.3978 95.4325 92.4213 95.4795 92.4213C95.5029 92.4918 95.5029 92.5858 95.5264 92.7267C95.5499 92.8442 95.5499 92.9617 95.5499 93.0321C95.6438 92.8677 95.7847 92.7267 95.9726 92.5858C96.1604 92.4448 96.3717 92.3978 96.63 92.3978C96.677 92.3978 96.7005 92.3978 96.7475 92.3978C96.7944 92.3978 96.8179 92.3978 96.8649 92.3978C96.8649 92.4448 96.8883 92.4918 96.8883 92.5388C96.8883 92.5858 96.8883 92.6328 96.8883 92.7032C96.8883 92.7737 96.8883 92.8207 96.8883 92.8912C96.8883 92.9617 96.8649 93.0086 96.8649 93.0791C96.8179 93.0791 96.7944 93.0556 96.7475 93.0556C96.7005 93.0556 96.677 93.0556 96.6535 93.0556C96.5126 93.0556 96.3952 93.0791 96.2778 93.1026C96.1604 93.1496 96.043 93.1966 95.9491 93.2906C95.8552 93.3845 95.7847 93.5255 95.7143 93.6899C95.6673 93.8544 95.6203 94.0658 95.6203 94.3242V96.2272C95.5734 96.2272 95.5029 96.2507 95.4325 96.2507C95.3621 96.2507 95.3151 96.2507 95.2446 96.2507C95.1742 96.2507 95.1272 96.2507 95.0568 96.2507C94.9863 96.2507 94.9159 96.2272 94.8689 96.2272V92.4213H94.8455Z" fill="white"/>
<path d="M98.1564 93.0093H97.5694L97.5459 92.9154L98.8373 91.4823H98.9078V92.422H99.8705C99.894 92.516 99.894 92.61 99.894 92.7039C99.894 92.7509 99.894 92.8214 99.894 92.8684C99.894 92.9154 99.8705 92.9624 99.8705 93.0093H98.9078V94.7713C98.9078 94.9827 98.9078 95.1472 98.9313 95.2647C98.9547 95.3821 98.9782 95.4761 99.0252 95.5466C99.0722 95.6171 99.1191 95.664 99.1896 95.6875C99.26 95.711 99.3539 95.711 99.4713 95.711C99.5652 95.711 99.6357 95.711 99.7061 95.6875C99.7766 95.664 99.847 95.664 99.9175 95.6405C99.9409 95.7345 99.9644 95.852 99.9879 95.9459C99.9879 96.0399 99.9879 96.1339 99.9879 96.2279C99.894 96.2514 99.7766 96.2748 99.6827 96.2748C99.5652 96.2983 99.4478 96.2983 99.3304 96.2983C98.9782 96.2983 98.6965 96.2044 98.4851 96.0399C98.2738 95.8755 98.1799 95.5701 98.1799 95.1707V93.0093H98.1564Z" fill="white"/>
<path d="M106.375 93.4795C106.445 93.4795 106.492 93.456 106.562 93.456C106.633 93.456 106.703 93.456 106.75 93.456C106.797 93.456 106.891 93.456 106.938 93.456C107.009 93.456 107.056 93.4795 107.126 93.4795V96.1107C107.032 96.1577 106.915 96.2047 106.774 96.2282C106.656 96.2517 106.515 96.2752 106.375 96.2987C106.234 96.3222 106.116 96.3222 105.975 96.3457C105.835 96.3457 105.717 96.3692 105.6 96.3692C105.201 96.3692 104.848 96.2987 104.52 96.1812C104.191 96.0637 103.956 95.8523 103.721 95.6174C103.51 95.3824 103.322 95.1005 103.205 94.7481C103.087 94.4192 103.04 94.0198 103.04 93.5969C103.04 93.174 103.111 92.7747 103.228 92.4223C103.346 92.0699 103.51 91.7879 103.745 91.5295C103.98 91.2711 104.238 91.1066 104.543 90.9657C104.848 90.8247 105.201 90.7777 105.553 90.7777C105.835 90.7777 106.093 90.8012 106.304 90.8247C106.515 90.8717 106.703 90.9187 106.868 90.9892C106.868 91.1066 106.844 91.2006 106.797 91.3181C106.75 91.4355 106.727 91.5295 106.68 91.6235C106.539 91.5765 106.398 91.5295 106.234 91.506C106.069 91.4825 105.858 91.459 105.623 91.459C105.365 91.459 105.107 91.506 104.895 91.6C104.684 91.694 104.496 91.8349 104.332 92.0229C104.167 92.2108 104.05 92.4223 103.98 92.7042C103.886 92.9626 103.862 93.268 103.862 93.6204C103.862 93.9728 103.909 94.2782 104.003 94.5367C104.097 94.7951 104.214 95.0065 104.379 95.171C104.543 95.3355 104.731 95.4764 104.942 95.5469C105.154 95.6409 105.388 95.6644 105.67 95.6644C105.835 95.6644 105.975 95.6644 106.093 95.6409C106.21 95.6174 106.304 95.5939 106.398 95.5704V93.4795H106.375Z" fill="white"/>
<path d="M108.676 92.4213C108.723 92.4213 108.793 92.3978 108.84 92.3978C108.887 92.3978 108.934 92.3978 109.005 92.3978C109.075 92.3978 109.122 92.3978 109.169 92.3978C109.216 92.3978 109.263 92.4213 109.31 92.4213C109.333 92.4918 109.333 92.5858 109.357 92.7267C109.38 92.8442 109.38 92.9617 109.38 93.0321C109.474 92.8677 109.615 92.7267 109.803 92.5858C109.991 92.4448 110.202 92.3978 110.461 92.3978C110.508 92.3978 110.531 92.3978 110.578 92.3978C110.625 92.3978 110.648 92.3978 110.695 92.3978C110.695 92.4448 110.719 92.4918 110.719 92.5388C110.719 92.5858 110.719 92.6328 110.719 92.7032C110.719 92.7737 110.719 92.8207 110.719 92.8912C110.719 92.9617 110.695 93.0086 110.695 93.0791C110.648 93.0791 110.625 93.0556 110.578 93.0556C110.531 93.0556 110.508 93.0556 110.484 93.0556C110.343 93.0556 110.226 93.0791 110.108 93.1026C109.991 93.1496 109.874 93.1966 109.78 93.2906C109.686 93.3845 109.615 93.5255 109.545 93.6899C109.498 93.8544 109.451 94.0658 109.451 94.3242V96.2272C109.404 96.2272 109.333 96.2507 109.263 96.2507C109.193 96.2507 109.146 96.2507 109.075 96.2507C109.005 96.2507 108.958 96.2507 108.887 96.2507C108.817 96.2507 108.746 96.2272 108.7 96.2272V92.4213H108.676Z" fill="white"/>
<path d="M113.278 96.3448C112.973 96.3448 112.715 96.2978 112.503 96.1804C112.269 96.0864 112.081 95.9454 111.94 95.7575C111.799 95.5695 111.682 95.3581 111.611 95.1232C111.541 94.8882 111.494 94.6063 111.494 94.3244C111.494 94.0425 111.541 93.784 111.611 93.5256C111.682 93.2907 111.799 93.0792 111.94 92.8913C112.081 92.7033 112.269 92.5624 112.503 92.4684C112.738 92.3744 112.996 92.304 113.278 92.304C113.56 92.304 113.842 92.3509 114.053 92.4684C114.264 92.5859 114.476 92.7268 114.617 92.8913C114.758 93.0792 114.875 93.2907 114.945 93.5256C115.016 93.7605 115.063 94.0425 115.063 94.3244C115.063 94.6063 115.016 94.8647 114.945 95.1232C114.875 95.3581 114.758 95.5695 114.617 95.7575C114.476 95.9454 114.288 96.0864 114.053 96.1804C113.842 96.2978 113.583 96.3448 113.278 96.3448ZM113.278 95.7575C113.63 95.7575 113.865 95.64 114.03 95.3816C114.194 95.1232 114.288 94.7943 114.288 94.3479C114.288 93.9015 114.194 93.5491 114.03 93.3142C113.865 93.0557 113.607 92.9383 113.278 92.9383C112.949 92.9383 112.691 93.0557 112.527 93.3142C112.362 93.5726 112.292 93.9015 112.292 94.3479C112.292 94.7943 112.362 95.1467 112.527 95.3816C112.691 95.64 112.926 95.7575 113.278 95.7575Z" fill="white"/>
<path d="M116.378 92.4213C116.425 92.4213 116.495 92.3978 116.566 92.3978C116.636 92.3978 116.707 92.3978 116.754 92.3978C116.801 92.3978 116.871 92.3978 116.941 92.3978C117.012 92.3978 117.082 92.4213 117.129 92.4213V94.5357C117.129 94.7706 117.153 94.9821 117.2 95.123C117.247 95.2875 117.317 95.4049 117.411 95.4989C117.505 95.5929 117.599 95.6399 117.74 95.6868C117.881 95.7103 118.022 95.7338 118.186 95.7338C118.444 95.7338 118.656 95.7103 118.843 95.6399V92.4213C118.89 92.4213 118.961 92.3978 119.031 92.3978C119.102 92.3978 119.149 92.3978 119.219 92.3978C119.29 92.3978 119.337 92.3978 119.407 92.3978C119.477 92.3978 119.524 92.4213 119.595 92.4213V96.1332C119.43 96.1802 119.219 96.2272 118.961 96.2742C118.703 96.3211 118.468 96.3446 118.209 96.3446C117.975 96.3446 117.74 96.3211 117.528 96.2742C117.317 96.2272 117.129 96.1567 116.965 96.0157C116.801 95.8748 116.66 95.7103 116.566 95.4754C116.472 95.2405 116.425 94.9351 116.425 94.5357V92.4213H116.378Z" fill="white"/>
<path d="M121.074 92.4214C121.121 92.4214 121.168 92.3979 121.239 92.3979C121.286 92.3979 121.356 92.3979 121.403 92.3979C121.45 92.3979 121.497 92.3979 121.567 92.3979C121.638 92.3979 121.685 92.4214 121.732 92.4214C121.732 92.4214 121.732 92.4684 121.755 92.5154C121.779 92.5624 121.779 92.6329 121.779 92.6799C121.779 92.7503 121.802 92.7973 121.802 92.8443C121.802 92.8913 121.802 92.9383 121.802 92.9383C121.849 92.8678 121.92 92.7738 121.99 92.7033C122.06 92.6329 122.154 92.5624 122.248 92.4919C122.342 92.4214 122.46 92.3744 122.577 92.3509C122.694 92.3275 122.835 92.304 122.976 92.304C123.211 92.304 123.399 92.3509 123.61 92.4214C123.821 92.4919 123.962 92.6094 124.103 92.7738C124.244 92.9383 124.338 93.1262 124.432 93.3612C124.502 93.5961 124.549 93.878 124.549 94.2069C124.549 94.8647 124.362 95.3816 124.009 95.7575C123.657 96.1334 123.141 96.3213 122.483 96.3213C122.366 96.3213 122.272 96.3213 122.154 96.2978C122.037 96.2744 121.943 96.2744 121.849 96.2274V97.9894C121.779 97.9894 121.732 98.0129 121.661 98.0129C121.591 98.0129 121.544 98.0129 121.473 98.0129C121.426 98.0129 121.356 98.0129 121.286 98.0129C121.215 98.0129 121.168 97.9894 121.098 97.9894V92.4214H121.074ZM121.826 95.64C121.92 95.6635 122.013 95.7105 122.107 95.7105C122.201 95.7105 122.342 95.734 122.507 95.734C122.694 95.734 122.859 95.7105 123 95.64C123.141 95.593 123.281 95.4991 123.375 95.3816C123.493 95.2641 123.563 95.0997 123.634 94.9352C123.704 94.7708 123.728 94.5358 123.728 94.2774C123.728 93.878 123.657 93.5726 123.516 93.3377C123.375 93.1027 123.117 92.9853 122.788 92.9853C122.671 92.9853 122.554 93.0088 122.436 93.0557C122.319 93.1027 122.225 93.1732 122.131 93.2672C122.037 93.3612 121.966 93.4786 121.92 93.5961C121.873 93.7371 121.826 93.9015 121.826 94.0895V95.64Z" fill="white"/>
<path d="M53.1443 64.23L53.2147 54.8562H53.1678L49.7161 64.23H47.4619L44.1041 54.8562H44.0806L44.1511 64.23H41.1455V50.9799H45.7008L48.7299 59.4844H48.8003L51.6885 50.9799H56.2907V64.23H53.1443Z" fill="white"/>
<path d="M64.9786 64.2302V62.9381H64.9316C64.8142 63.1495 64.6734 63.3609 64.4855 63.5489C64.2977 63.7368 64.0863 63.9013 63.8515 64.0423C63.6167 64.1832 63.3349 64.3007 63.0532 64.3712C62.7714 64.4651 62.4427 64.5121 62.1374 64.5121C61.5034 64.5121 60.9868 64.3947 60.5642 64.1832C60.1415 63.9483 59.7893 63.6664 59.5075 63.314C59.2492 62.9616 59.0379 62.5622 58.9205 62.0923C58.8031 61.6459 58.7327 61.1761 58.7327 60.7062V54.9269H61.8322V59.9779C61.8322 60.2363 61.8556 60.4948 61.8791 60.7297C61.9261 60.9646 61.9965 61.1761 62.0905 61.364C62.2079 61.552 62.3253 61.6929 62.5131 61.8104C62.6775 61.9279 62.9123 61.9748 63.1941 61.9748C63.7341 61.9748 64.1333 61.7869 64.4151 61.364C64.6968 60.9646 64.8377 60.4948 64.8377 59.9544V54.9269H67.9137V64.2537H64.9786V64.2302Z" fill="white"/>
<path d="M69.769 64.2306V61.8343L74.16 57.2531H69.9569V54.9038H77.8934V57.2061L73.3851 61.8578H78.0813V64.2306H69.769Z" fill="white"/>
<path d="M83.2468 51.9434C83.2468 52.1783 83.1998 52.4133 83.1059 52.6012C83.012 52.7892 82.8946 52.9771 82.7302 53.1416C82.5658 53.2825 82.378 53.4 82.1666 53.494C81.9553 53.5879 81.7205 53.6349 81.4857 53.6349C80.9926 53.6349 80.5699 53.4705 80.2412 53.1416C79.9125 52.8127 79.7246 52.4133 79.7246 51.9434C79.7246 51.7085 79.7716 51.497 79.8655 51.2856C79.9594 51.0742 80.0768 50.9097 80.2412 50.7452C80.4056 50.6043 80.5934 50.4633 80.8047 50.3694C81.0161 50.2754 81.2509 50.2284 81.4857 50.2284C81.7205 50.2284 81.9553 50.2754 82.1666 50.3694C82.378 50.4633 82.5658 50.5808 82.7302 50.7218C82.8946 50.8627 83.012 51.0507 83.1059 51.2621C83.1998 51.4735 83.2468 51.7085 83.2468 51.9434ZM79.9594 64.2304V54.9036H83.0354V64.2304H79.9594Z" fill="white"/>
<path d="M95.4809 64.2302H91.677L88.6245 59.743H88.5775V64.2302H85.478V50.0638H88.5775V58.6859H88.6245L91.6065 54.9034H95.34L91.7474 59.1087L95.4809 64.2302Z" fill="white"/>
<path d="M96.3495 56.1954C96.8896 55.6785 97.5471 55.2791 98.275 55.0207C99.0029 54.7623 99.7543 54.6213 100.506 54.6213C101.281 54.6213 101.961 54.7153 102.502 54.9033C103.042 55.0912 103.488 55.3966 103.816 55.796C104.145 56.1954 104.404 56.7122 104.544 57.3231C104.709 57.9339 104.779 58.6857 104.779 59.5314V64.2301H101.961V63.2434H101.915C101.68 63.6193 101.328 63.9247 100.834 64.1361C100.365 64.3475 99.8247 64.465 99.2612 64.465C98.8855 64.465 98.5098 64.418 98.1106 64.324C97.7114 64.2301 97.3357 64.0656 97.007 63.8307C96.6783 63.5958 96.3965 63.3138 96.1852 62.9379C95.9738 62.5621 95.8564 62.0922 95.8564 61.5518C95.8564 60.8705 96.0443 60.3302 96.42 59.9308C96.7957 59.5079 97.2653 59.2025 97.8523 58.9676C98.4394 58.7327 99.0733 58.5917 99.8012 58.5212C100.506 58.4507 101.21 58.4038 101.868 58.4038V58.2628C101.868 57.7929 101.703 57.464 101.374 57.2526C101.046 57.0411 100.647 56.9237 100.177 56.9237C99.7308 56.9237 99.3081 57.0176 98.909 57.2056C98.5098 57.3935 98.1576 57.6285 97.8758 57.8869L96.3495 56.1954ZM101.985 60.1657H101.586C101.257 60.1657 100.905 60.1892 100.576 60.2127C100.224 60.2362 99.9187 60.3067 99.6604 60.4007C99.4021 60.4947 99.1673 60.6121 99.0029 60.7766C98.8385 60.941 98.7446 61.176 98.7446 61.4344C98.7446 61.5988 98.7916 61.7633 98.862 61.8808C98.9324 61.9982 99.0499 62.1157 99.1673 62.1862C99.2847 62.2566 99.4256 62.3036 99.5899 62.3506C99.7543 62.3741 99.9187 62.3976 100.06 62.3976C100.694 62.3976 101.163 62.2331 101.492 61.8808C101.821 61.5284 101.985 61.082 101.985 60.4946V60.1657ZM101.14 53.5172H98.815L100.764 50.8154H103.863L101.14 53.5172Z" fill="white"/>
<path d="M107.127 64.2302V50.0638H110.25V64.2302H107.127Z" fill="white"/>
<path d="M122.554 59.5319C122.554 60.2837 122.413 60.9885 122.131 61.5993C121.85 62.2101 121.474 62.7505 121.004 63.1734C120.535 63.5962 119.971 63.9486 119.361 64.1836C118.727 64.4185 118.069 64.536 117.365 64.536C116.66 64.536 116.003 64.4185 115.369 64.1836C114.735 63.9486 114.195 63.6197 113.725 63.1734C113.256 62.7505 112.88 62.2101 112.622 61.5993C112.34 60.9885 112.199 60.2837 112.199 59.5319C112.199 58.7801 112.34 58.0753 112.622 57.4645C112.903 56.8537 113.279 56.3368 113.725 55.914C114.195 55.4911 114.735 55.1622 115.369 54.9507C116.003 54.7158 116.66 54.6218 117.365 54.6218C118.069 54.6218 118.75 54.7393 119.361 54.9507C119.995 55.1857 120.535 55.4911 121.004 55.914C121.474 56.3368 121.85 56.8537 122.131 57.4645C122.413 58.0988 122.554 58.7801 122.554 59.5319ZM119.595 59.5319C119.595 59.2265 119.549 58.9446 119.455 58.6627C119.361 58.3807 119.22 58.1223 119.032 57.9109C118.844 57.6994 118.609 57.5115 118.328 57.3705C118.046 57.2296 117.74 57.1591 117.365 57.1591C117.013 57.1591 116.684 57.2296 116.402 57.3705C116.12 57.5115 115.909 57.6759 115.721 57.9109C115.533 58.1223 115.392 58.3807 115.298 58.6627C115.205 58.9446 115.158 59.25 115.158 59.5319C115.158 59.8138 115.205 60.1192 115.298 60.4012C115.392 60.6831 115.533 60.9415 115.721 61.1764C115.909 61.4114 116.144 61.5993 116.402 61.7403C116.684 61.8812 116.989 61.9517 117.365 61.9517C117.717 61.9517 118.046 61.8812 118.328 61.7403C118.609 61.5993 118.844 61.4114 119.008 61.1764C119.196 60.9415 119.337 60.6831 119.431 60.4012C119.525 60.1192 119.595 59.8373 119.595 59.5319Z" fill="white"/>
<path d="M130.256 64.2306H126.945L123.282 54.9038H126.663L128.636 60.9416H128.683L130.655 54.9038H133.943L130.256 64.2306Z" fill="white"/>
<path d="M134.976 56.1954C135.516 55.6785 136.173 55.2791 136.901 55.0207C137.629 54.7623 138.381 54.6213 139.132 54.6213C139.907 54.6213 140.588 54.7153 141.128 54.9033C141.668 55.0912 142.114 55.3966 142.443 55.796C142.771 56.1954 143.03 56.7122 143.171 57.3231C143.335 57.9339 143.405 58.6857 143.405 59.5314V64.2301H140.588V63.2434H140.541C140.306 63.6193 139.954 63.9247 139.461 64.1361C138.991 64.3475 138.451 64.465 137.887 64.465C137.512 64.465 137.136 64.418 136.737 64.324C136.338 64.2301 135.962 64.0656 135.633 63.8307C135.305 63.5958 135.023 63.3138 134.811 62.9379C134.6 62.5621 134.483 62.0922 134.483 61.5518C134.483 60.8705 134.671 60.3302 135.046 59.9308C135.422 59.5079 135.892 59.2025 136.479 58.9676C137.066 58.7327 137.7 58.5917 138.404 58.5212C139.108 58.4507 139.813 58.4038 140.47 58.4038V58.2628C140.47 57.7929 140.306 57.464 139.977 57.2526C139.648 57.0411 139.249 56.9237 138.78 56.9237C138.334 56.9237 137.911 57.0176 137.512 57.2056C137.113 57.3935 136.76 57.6285 136.479 57.8869L134.976 56.1954ZM140.611 60.1657H140.212C139.883 60.1657 139.531 60.1892 139.202 60.2127C138.85 60.2362 138.545 60.3067 138.287 60.4007C138.028 60.4947 137.793 60.6121 137.629 60.7766C137.465 60.941 137.371 61.176 137.371 61.4344C137.371 61.5988 137.418 61.7633 137.488 61.8808C137.559 61.9982 137.676 62.1157 137.793 62.1862C137.911 62.2566 138.052 62.3036 138.216 62.3506C138.381 62.3741 138.545 62.3976 138.686 62.3976C139.32 62.3976 139.789 62.2331 140.118 61.8808C140.447 61.5284 140.611 61.082 140.611 60.4946V60.1657ZM139.742 53.5172H137.418L139.367 50.8154H142.466L139.742 53.5172Z" fill="white"/>
<path d="M48.6364 74.9202C49.1765 74.4034 49.8339 74.004 50.5619 73.7456C51.2898 73.4871 52.0412 73.3462 52.7925 73.3462C53.5674 73.3462 54.2484 73.4402 54.7884 73.6281C55.3285 73.8161 55.7746 74.1215 56.1034 74.5209C56.4321 74.9202 56.6904 75.4371 56.8313 76.0479C56.9956 76.6588 57.0661 77.4105 57.0661 78.2563V82.955H54.2484V81.9682H54.2014C53.9666 82.3441 53.6144 82.6496 53.1213 82.861C52.6517 83.0724 52.1116 83.1899 51.5481 83.1899C51.1724 83.1899 50.7967 83.1429 50.3975 83.0489C49.9983 82.955 49.6226 82.7905 49.2939 82.5556C48.9651 82.3206 48.6834 82.0387 48.472 81.6628C48.2607 81.2869 48.1433 80.8171 48.1433 80.2767C48.1433 79.5954 48.3312 79.0551 48.7069 78.6557C49.0825 78.2328 49.5522 77.9274 50.1392 77.6925C50.7262 77.4575 51.3602 77.3166 52.0881 77.2461C52.7925 77.1756 53.497 77.1286 54.1544 77.1286V76.9877C54.1544 76.5178 53.9901 76.1889 53.6613 75.9774C53.3326 75.766 52.9334 75.6485 52.4638 75.6485C52.0177 75.6485 51.595 75.7425 51.1958 75.9305C50.7967 76.1184 50.4444 76.3533 50.1627 76.6118L48.6364 74.9202ZM54.2718 78.9141H53.8727C53.5439 78.9141 53.1917 78.9376 52.863 78.9611C52.5108 78.9846 52.2055 79.0551 51.9472 79.149C51.6889 79.243 51.4541 79.3605 51.2898 79.5249C51.1254 79.6894 51.0315 79.9243 51.0315 80.1827C51.0315 80.3472 51.0784 80.5117 51.1489 80.6291C51.2193 80.7466 51.3367 80.8641 51.4541 80.9345C51.5715 81.005 51.7124 81.052 51.8768 81.099C52.0411 81.1225 52.2055 81.146 52.3464 81.146C52.9804 81.146 53.45 80.9815 53.7787 80.6291C54.1075 80.2767 54.2718 79.8303 54.2718 79.243V78.9141Z" fill="white"/>
<path d="M69.3935 82.9781H65.5896L62.5371 78.4908H62.4901V82.9781H59.3906V68.8116H62.4901V77.4337H62.5371L65.5191 73.6512H69.2526L65.66 77.8565L69.3935 82.9781Z" fill="white"/>
<path d="M70.2621 74.9202C70.8022 74.4034 71.4597 74.004 72.1876 73.7456C72.9155 73.4871 73.6669 73.3462 74.4183 73.3462C75.1932 73.3462 75.8741 73.4402 76.4142 73.6281C76.9542 73.8161 77.4004 74.1215 77.7291 74.5209C78.0578 74.9202 78.3161 75.4371 78.457 76.0479C78.6214 76.6588 78.6918 77.4105 78.6918 78.2563V82.955H75.8741V81.9682H75.8271C75.5923 82.3441 75.2401 82.6496 74.747 82.861C74.2774 83.0724 73.7373 83.1899 73.1738 83.1899C72.7981 83.1899 72.4224 83.1429 72.0232 83.0489C71.624 82.955 71.2483 82.7905 70.9196 82.5556C70.5909 82.3206 70.3091 82.0387 70.0978 81.6628C69.8864 81.2869 69.769 80.8171 69.769 80.2767C69.769 79.5954 69.9569 79.0551 70.3326 78.6557C70.7083 78.2328 71.1779 77.9274 71.7649 77.6925C72.3519 77.4575 72.9859 77.3166 73.7139 77.2461C74.4183 77.1756 75.1227 77.1286 75.7802 77.1286V76.9877C75.7802 76.5178 75.6158 76.1889 75.2871 75.9774C74.9583 75.766 74.5592 75.6485 74.0895 75.6485C73.6434 75.6485 73.2207 75.7425 72.8216 75.9305C72.4224 76.1184 72.0702 76.3533 71.7884 76.6118L70.2621 74.9202ZM75.8976 78.9141H75.4984C75.1697 78.9141 74.8175 78.9376 74.4887 78.9611C74.1365 78.9846 73.8313 79.0551 73.573 79.149C73.3147 79.243 73.0799 79.3605 72.9155 79.5249C72.7511 79.6894 72.6572 79.9243 72.6572 80.1827C72.6572 80.3472 72.7042 80.5117 72.7746 80.6291C72.8451 80.7466 72.9625 80.8641 73.0799 80.9345C73.1973 81.005 73.3381 81.052 73.5025 81.099C73.6669 81.1225 73.8312 81.146 73.9721 81.146C74.6061 81.146 75.0757 80.9815 75.4045 80.6291C75.7332 80.2767 75.8976 79.8303 75.8976 79.243V78.9141Z" fill="white"/>
<path d="M88.0369 82.978V81.7563H87.9899C87.6847 82.2262 87.262 82.6021 86.6985 82.8605C86.1349 83.1189 85.5479 83.2364 84.9374 83.2364C84.233 83.2364 83.6225 83.0954 83.0589 82.8135C82.5189 82.5316 82.0493 82.1792 81.6736 81.7094C81.2979 81.263 80.9926 80.7226 80.8048 80.1353C80.5934 79.5245 80.4995 78.9137 80.4995 78.2559C80.4995 77.5981 80.5934 76.9872 80.8048 76.3999C81.0161 75.8126 81.2979 75.2957 81.6736 74.8259C82.0493 74.3795 82.5189 74.0271 83.0589 73.7687C83.599 73.5103 84.2095 73.3693 84.8904 73.3693C85.5714 73.3693 86.1584 73.5103 86.628 73.7687C87.0976 74.0271 87.4733 74.309 87.7316 74.6379H87.7786V68.8116H90.8546V82.978H88.0369ZM87.943 78.2794C87.943 77.974 87.896 77.692 87.7786 77.4101C87.6612 77.1282 87.5203 76.8698 87.3325 76.6349C87.1446 76.3999 86.9098 76.2355 86.628 76.0945C86.3463 75.9535 86.041 75.8831 85.6888 75.8831C85.3366 75.8831 85.0078 75.9535 84.7261 76.0945C84.4443 76.2355 84.2095 76.3999 84.0451 76.6349C83.8573 76.8463 83.7164 77.1047 83.6225 77.3866C83.5285 77.6685 83.4816 77.974 83.4816 78.2559C83.4816 78.5378 83.5285 78.8432 83.6225 79.1486C83.7164 79.4305 83.8573 79.7124 84.0451 79.9239C84.233 80.1588 84.4678 80.3233 84.7261 80.4642C85.0078 80.6052 85.3131 80.6757 85.6888 80.6757C86.041 80.6757 86.3463 80.6052 86.628 80.4642C86.9098 80.3233 87.1446 80.1353 87.3325 79.9239C87.5203 79.689 87.6847 79.454 87.7786 79.1486C87.8725 78.8902 87.943 78.5848 87.943 78.2794Z" fill="white"/>
<path d="M102.548 78.4202C102.548 78.5377 102.548 78.6786 102.548 78.7961C102.548 78.9136 102.548 79.031 102.525 79.1485H95.7622C95.7857 79.4069 95.8562 79.6419 95.997 79.8533C96.1379 80.0647 96.3023 80.2527 96.5136 80.4171C96.7249 80.5816 96.9598 80.699 97.1946 80.793C97.4529 80.887 97.7112 80.934 97.9929 80.934C98.486 80.934 98.8852 80.84 99.2374 80.6521C99.5662 80.4641 99.8479 80.2292 100.059 79.9473L102.196 81.2864C101.75 81.9207 101.186 82.4141 100.458 82.7665C99.7305 83.1189 98.9087 83.2833 97.9694 83.2833C97.265 83.2833 96.6075 83.1658 95.997 82.9544C95.3631 82.743 94.823 82.4141 94.3534 81.9912C93.8837 81.5683 93.508 81.0514 93.2498 80.4406C92.9915 79.8298 92.8506 79.125 92.8506 78.3497C92.8506 77.5979 92.9915 76.8931 93.2498 76.2823C93.508 75.6715 93.8603 75.1311 94.3064 74.7083C94.7525 74.2854 95.2926 73.933 95.9031 73.6981C96.5136 73.4631 97.1711 73.3457 97.899 73.3457C98.58 73.3457 99.2139 73.4631 99.801 73.6981C100.365 73.933 100.858 74.2619 101.28 74.7083C101.703 75.1546 102.008 75.6715 102.243 76.3058C102.431 76.9166 102.548 77.6214 102.548 78.4202ZM99.7305 77.2455C99.7305 76.7522 99.5662 76.3293 99.2609 76.0004C98.9556 75.648 98.486 75.4835 97.8755 75.4835C97.5703 75.4835 97.312 75.5305 97.0537 75.6245C96.7954 75.7185 96.5841 75.8359 96.3962 76.0004C96.2084 76.1648 96.0675 76.3528 95.9501 76.5642C95.8327 76.7757 95.7857 77.0106 95.7622 77.2455H99.7305ZM98.2982 72.265H95.9736L97.9225 69.5632H101.022L98.2982 72.265Z" fill="white"/>
<path d="M116.355 82.9779V77.8798C116.355 77.6214 116.331 77.363 116.308 77.128C116.261 76.8931 116.19 76.6817 116.097 76.4937C116.003 76.3293 115.862 76.1883 115.697 76.0709C115.533 75.9534 115.298 75.9064 115.04 75.9064C114.782 75.9064 114.547 75.9534 114.359 76.0709C114.171 76.1883 114.007 76.3293 113.866 76.5172C113.725 76.7052 113.631 76.9166 113.584 77.175C113.514 77.41 113.49 77.6684 113.49 77.9268V82.9544H110.414V77.6449C110.414 77.1046 110.297 76.6817 110.085 76.3763C109.874 76.0709 109.545 75.9064 109.076 75.9064C108.583 75.9064 108.207 76.0944 107.949 76.4937C107.69 76.8696 107.549 77.363 107.549 77.9268V82.9779H104.45V73.6511H107.432V74.9432H107.479C107.596 74.7552 107.737 74.5438 107.902 74.3559C108.066 74.1679 108.277 74.0035 108.512 73.8625C108.747 73.7215 109.005 73.6041 109.311 73.5101C109.592 73.4161 109.921 73.3691 110.273 73.3691C110.954 73.3691 111.518 73.5101 111.987 73.792C112.457 74.0739 112.809 74.4498 113.091 74.9667C113.396 74.4733 113.795 74.0974 114.288 73.8155C114.782 73.5336 115.369 73.3926 116.073 73.3926C116.707 73.3926 117.247 73.5101 117.67 73.745C118.092 73.98 118.445 74.2854 118.703 74.6378C118.961 75.0137 119.149 75.413 119.266 75.8829C119.384 76.3528 119.454 76.7757 119.454 77.222V83.0013H116.355V82.9779Z" fill="white"/>
<path d="M125.09 70.6673C125.09 70.9022 125.043 71.1371 124.949 71.3251C124.855 71.513 124.737 71.701 124.573 71.8654C124.409 72.0064 124.221 72.1239 124.009 72.2178C123.798 72.3118 123.563 72.3588 123.328 72.3588C122.835 72.3588 122.413 72.1943 122.084 71.8654C121.755 71.5365 121.567 71.1371 121.567 70.6673C121.567 70.4323 121.614 70.2209 121.708 70.0095C121.802 69.798 121.92 69.6336 122.084 69.4691C122.248 69.3282 122.436 69.1872 122.648 69.0932C122.859 68.9993 123.094 68.9523 123.328 68.9523C123.563 68.9523 123.798 68.9993 124.009 69.0932C124.221 69.1872 124.409 69.3047 124.573 69.4456C124.737 69.5866 124.855 69.7745 124.949 69.986C125.043 70.1974 125.09 70.4323 125.09 70.6673ZM121.802 82.9777V73.6509H124.855V82.9777H121.802Z" fill="white"/>
<path d="M127.157 74.9202C127.697 74.4034 128.354 74.004 129.082 73.7456C129.81 73.4871 130.561 73.3462 131.313 73.3462C132.088 73.3462 132.769 73.4402 133.309 73.6281C133.849 73.8161 134.295 74.1215 134.624 74.5209C134.952 74.9202 135.211 75.4371 135.352 76.0479C135.516 76.6588 135.586 77.4105 135.586 78.2563V82.955H132.769V81.9682H132.722C132.487 82.3441 132.135 82.6496 131.642 82.861C131.172 83.0724 130.632 83.1899 130.068 83.1899C129.693 83.1899 129.317 83.1429 128.918 83.0489C128.519 82.955 128.143 82.7905 127.814 82.5556C127.485 82.3206 127.204 82.0387 126.992 81.6628C126.781 81.2869 126.664 80.8171 126.664 80.2767C126.664 79.5954 126.851 79.0551 127.227 78.6557C127.603 78.2328 128.072 77.9274 128.659 77.6925C129.246 77.4575 129.88 77.3166 130.585 77.2461C131.289 77.1756 131.994 77.1286 132.651 77.1286V76.9877C132.651 76.5178 132.487 76.1889 132.158 75.9774C131.829 75.766 131.43 75.6485 130.961 75.6485C130.514 75.6485 130.092 75.7425 129.693 75.9305C129.293 76.1184 128.941 76.3533 128.659 76.6118L127.157 74.9202ZM132.792 78.9141H132.393C132.064 78.9141 131.712 78.9376 131.383 78.9611C131.031 78.9846 130.726 79.0551 130.467 79.149C130.209 79.243 129.974 79.3605 129.81 79.5249C129.646 79.6894 129.552 79.9243 129.552 80.1827C129.552 80.3472 129.599 80.5117 129.669 80.6291C129.74 80.7466 129.857 80.8641 129.974 80.9345C130.092 81.005 130.233 81.052 130.397 81.099C130.561 81.1225 130.726 81.146 130.867 81.146C131.501 81.146 131.97 80.9815 132.299 80.6291C132.628 80.2767 132.792 79.8303 132.792 79.243V78.9141Z" fill="white"/>
<path d="M19.6593 0V50.6279C17.1468 48.7014 12.1688 49.0773 7.51962 51.779C2.04855 54.9271 -0.886577 60.0721 0.94494 63.2672C2.77646 66.4623 8.69366 66.4858 14.1647 63.3142C18.8844 60.589 21.7021 56.3837 21.209 53.2356V7.23591C26.3748 24.8323 40.7452 37.2837 60.6806 38.7873C94.5871 41.3481 129.409 -4.46371 168.81 22.5535C136.313 -21.8722 63.827 42.5227 19.6593 0Z" fill="url(#paint0_linear)"/>
<defs>
<linearGradient id="paint0_linear" x1="-5.33561" y1="37.3184" x2="160.211" y2="-1.70537" gradientUnits="userSpaceOnUse">
<stop stop-color="#7DC242"/>
<stop offset="0.3021" stop-color="#45C7F4"/>
<stop offset="0.6427" stop-color="#ED4D9B"/>
<stop offset="1" stop-color="#F68B1F"/>
</linearGradient>
</defs>
</svg>
