<svg width="151" height="119" viewBox="0 0 151 119" fill="none" xmlns="http://www.w3.org/2000/svg">
<path fill-rule="evenodd" clip-rule="evenodd" d="M102.047 0.00585938C101.97 3.02439 101.428 5.03675 100.384 6.58472L99.0694 4.34017C99.0694 4.34017 98.8374 4.61106 98.7987 5.11415C98.7987 5.61724 99.3014 7.74569 99.4948 8.24878C99.6882 8.71317 101.312 9.56455 101.312 9.56455C101.312 9.56455 102.511 12.7766 103.826 14.9437C105.025 17.1883 106.61 21.1743 106.61 21.1743C106.61 21.1743 106.533 22.0257 105.837 23.0706C105.141 24.1928 103.13 27.908 103.13 27.908C103.13 27.908 103.053 26.7083 102.357 23.8445C101.66 21.0582 101.66 20.2068 100.114 19.1619C98.4507 18.1171 89.7108 14.3245 88.7439 14.0537C88.3186 13.9763 87.6225 12.854 86.733 12.5831C83.8713 11.7317 81.8603 12.0413 78.9212 12.6218C78.5732 12.6992 78.6505 13.1249 78.7279 13.4345C78.8439 13.8602 81.8603 14.5567 83.7552 15.6016C83.9873 15.7564 83.2138 16.1434 82.5951 16.4917C82.247 16.6465 81.9377 16.84 81.8603 16.9174C81.667 17.1109 82.363 17.0722 82.7884 17.0335C82.9045 17.0335 82.9818 17.0335 83.0205 17.0335C84.1806 17.0335 84.9928 16.7239 85.6502 16.4917C86.1916 16.2982 86.6557 16.1047 87.1971 16.1434C88.3959 16.2208 91.1803 18.8137 93.1139 19.7811C95.1248 20.826 97.9866 22.4514 97.9866 22.4514C97.9866 23.4189 98.0253 24.3863 98.1026 25.3151C98.2186 27.7532 98.3733 29.9977 97.4838 31.8166C97.4838 31.8166 95.0088 31.1587 93.7326 30.1525C92.7272 29.3785 92.1471 27.8693 92.1471 27.8693L89.4014 28.2562C89.4014 28.2562 88.8213 27.8306 88.4346 27.6371C87.8932 28.2175 87.3904 29.1076 86.3463 29.4559C83.1365 30.5782 81.5896 33.7128 79.656 36.3057C78.1091 38.2793 65.8501 48.7668 58.2316 35.5317C52.2375 46.2514 63.5297 59.2543 74.3966 53.2946C72.5017 55.1135 71.1095 55.8874 69.1759 56.6614C77.2583 57.1645 87.5064 51.05 89.9428 46.4449C90.6389 48.1863 89.2467 50.16 86.0369 52.5206C92.0311 52.6754 99.6495 46.4449 96.0917 36.7701C97.0585 36.9249 97.2905 37.041 98.7987 39.5564C100.346 42.0718 102.086 47.9541 102.086 47.9541C99.8428 48.999 96.3624 49.6569 94.8928 52.4432C94.8155 52.7141 94.6221 52.8689 94.5448 53.1398C88.8213 54.6878 81.1642 57.8998 79.3466 58.519C78.5345 58.7899 76.949 58.6351 75.2087 58.4416C75.0927 58.4416 75.0153 58.4029 74.8993 58.4029C72.8884 58.1707 70.6067 57.9385 68.9052 58.3642C65.618 59.1382 57.8063 60.4539 57.8063 60.4539C56.6848 59.1382 55.6406 58.7899 53.2043 59.6026C52.8176 59.7187 52.3922 59.7187 51.9281 59.7574C50.884 59.7961 49.5691 59.8735 47.6355 60.8796C46.166 61.5762 44.3484 64.3239 45.1991 64.5174C46.63 64.6722 47.5968 64.5561 48.2929 64.44C48.3703 64.44 48.4089 64.44 48.4863 64.4013C49.8785 64.1304 53.0109 64.2465 55.0992 64.4013C56.9555 64.5561 58.2317 64.1304 59.4305 63.7434C59.6238 63.666 59.8172 63.6273 60.0106 63.5499C61.4028 63.1242 68.2477 63.1242 71.1095 63.279C73.9712 63.5499 80.1201 64.4013 80.1201 64.4013C80.1201 64.4013 84.374 63.7821 87.7771 63.0081C89.324 62.6598 92.3018 62.2341 94.9702 61.9632C96.285 64.1304 98.528 66.0266 101.66 67.2263C105.296 68.6195 112.605 71.3671 113.997 72.0637C115.389 72.6829 120.339 74.9274 123.278 76.4754C126.14 77.946 135.847 78.3717 137.355 79.3391C137.277 80.0357 138.051 81.932 140.217 81.4289C140.835 81.5063 142.034 81.5837 142.653 81.6998C142.885 81.7385 143.117 81.7772 143.349 81.8159C143.968 81.932 144.625 82.0481 145.437 81.9707C147.448 81.8159 150.194 80.4227 150.31 79.5326C150.31 79.4552 150.349 79.4165 150.349 79.3778V79.3391C150.31 78.8747 149.498 79.223 147.448 78.836C145.089 78.4104 144.509 77.9847 141.802 76.9398C139.018 75.9723 137.548 75.8949 135.808 75.5466C134.145 75.1209 130.935 73.7278 127.725 72.6829C124.438 71.5606 121.925 69.5482 121.383 68.8904C120.958 68.1938 116.433 64.4787 113.146 62.3889C112.489 61.9632 111.793 61.5375 111.174 61.1118C108.621 59.4865 106.456 58.0933 106.301 58.2868C106.03 58.6351 107.693 54.3782 110.4 50.934C113.185 47.4897 111.019 41.0657 111.019 41.0657C111.019 41.0657 112.411 39.092 112.141 36.654C111.174 35.9574 108.505 34.5642 106.688 33.6354C106.146 33.3258 107.307 30.8878 108.621 28.1788C110.014 25.2764 111.56 22.0257 111.29 20.826C110.091 15.4468 105.914 13.2797 103.749 8.79057C102.782 6.89431 103.207 3.60488 103.207 3.60488L102.705 0.470249L102.047 0.00585938Z" fill="white"/>
<path d="M41.3327 20.3227C31.7807 24.1152 20.1404 27.9077 0.843018 27.1724C41.8355 42.3038 39.2057 17.9233 76.0216 14.2856C72.6958 13.6277 69.6794 13.3181 66.895 13.3181C57.1883 13.3568 50.1113 16.8397 41.3327 20.3227Z" fill="url(#paint0_linear)"/>
<path d="M6.91064 34.9126C34.0971 56.2746 45.5441 25.857 71.7638 16.2983C46.2402 20.0135 40.9421 42.9621 6.91064 34.9126Z" fill="url(#paint1_linear)"/>
<path fill-rule="evenodd" clip-rule="evenodd" d="M36.8461 78.9135C37.3488 78.8748 37.8129 78.7974 38.2382 78.7587C38.6636 78.72 39.1664 78.6813 39.6691 78.6813C40.2879 78.6813 40.9066 78.72 41.4867 78.8361C42.1055 78.9522 42.6469 79.1457 43.1109 79.4166C43.6137 79.6875 44.0004 80.0744 44.2711 80.5775C44.5805 81.0806 44.7352 81.6998 44.7352 82.4351C44.7352 82.8995 44.6965 83.2865 44.5805 83.6348C44.4645 83.9831 44.3098 84.2926 44.1551 84.5248C43.9617 84.7957 43.807 84.9892 43.575 85.1827C43.3816 85.3762 43.1883 85.531 42.9949 85.6084L42.7242 85.8019L45.6633 90.9102C45.4313 90.9489 45.1992 90.9489 44.9672 90.9876C44.7352 91.0263 44.4645 91.0263 44.1938 91.0263C43.7684 91.0263 43.343 90.9876 42.9176 90.9102L39.7465 85.2988L40.1332 85.1053C40.2879 85.0279 40.4812 84.9118 40.7133 84.7957C40.9453 84.6796 41.1387 84.5248 41.3707 84.3313C41.5641 84.1379 41.7574 83.9057 41.9121 83.6735C42.0668 83.4026 42.1441 83.093 42.1441 82.7447C42.1441 82.0481 41.9508 81.5063 41.5254 81.1967C41.1387 80.8484 40.5972 80.6936 39.9398 80.6936C39.7078 80.6936 39.4758 80.6936 39.2824 80.7323V90.9489C39.089 90.9876 38.8957 90.9876 38.6636 91.0263C38.4703 91.0263 38.2769 91.065 38.0836 91.065C37.8902 91.065 37.6968 91.065 37.4648 91.065C37.2328 91.065 37.0394 91.0263 36.8074 90.9876V78.9135H36.8461ZM73.2365 78.7587C72.8111 78.7974 72.3471 78.8361 71.8443 78.9135V91.0263C72.0763 91.065 72.3084 91.065 72.5017 91.1037C72.6951 91.1037 72.9271 91.1037 73.1205 91.1037C73.3138 91.1037 73.5072 91.1037 73.7006 91.065C73.8939 91.065 74.0873 91.0263 74.3193 90.9876V80.771C74.5127 80.7323 74.7447 80.7323 74.9768 80.7323C75.6342 80.7323 76.1369 80.8871 76.5623 81.2354C76.949 81.5837 77.1811 82.0868 77.1811 82.7834C77.1811 83.1317 77.1037 83.4413 76.949 83.7122C76.7943 83.9831 76.6397 84.2153 76.4076 84.3701C76.2143 84.5635 75.9822 84.7183 75.7502 84.8344C75.5182 84.9505 75.3248 85.0666 75.1701 85.144L74.7834 85.3375L77.9545 90.9489C78.3799 91.0263 78.8053 91.065 79.2307 91.065C79.5014 91.065 79.7334 91.065 80.0041 91.0263C80.2362 90.9876 80.5069 90.9876 80.7002 90.9489L77.7611 85.8406L78.0319 85.6471C78.2252 85.531 78.4186 85.3762 78.6119 85.2214C78.8053 85.0279 78.9987 84.7957 79.192 84.5635C79.3467 84.2927 79.5014 84.0218 79.6174 83.6735C79.7334 83.3252 79.7721 82.9382 79.7721 82.4738C79.7721 81.7385 79.6174 81.1193 79.308 80.6162C78.9987 80.1131 78.6119 79.7262 78.1479 79.4553C77.6451 79.1844 77.1037 78.9522 76.5236 78.8748C75.9049 78.7587 75.3248 78.72 74.706 78.72C74.1646 78.72 73.6619 78.72 73.2365 78.7587ZM83.6006 78.7587C83.0592 78.7974 82.5565 78.8361 82.0151 78.8748V91.0263C82.2471 91.065 82.4791 91.065 82.6725 91.1037C82.9045 91.1037 83.0979 91.1037 83.2526 91.1037C83.4459 91.1037 83.6393 91.1037 83.8327 91.1037C84.026 91.1037 84.2581 91.065 84.4514 91.0263V87.1564C84.5674 87.1564 84.6835 87.1564 84.7995 87.1951C84.9155 87.1951 85.0702 87.1951 85.2249 87.1951C85.7663 87.1951 86.3464 87.1564 86.8878 87.0403C87.4678 86.9242 87.9706 86.7307 88.4346 86.3824C88.8987 86.0728 89.2854 85.6471 89.5561 85.1053C89.8655 84.5635 89.9815 83.867 89.9815 82.9769C89.9815 82.0868 89.8268 81.3902 89.5561 80.8484C89.2468 80.3066 88.8987 79.8809 88.4346 79.5714C87.9706 79.2618 87.4292 79.0683 86.8491 78.9522C86.269 78.8361 85.6889 78.7974 85.1475 78.7974C84.6835 78.72 84.142 78.72 83.6006 78.7587ZM103.091 78.7587C102.666 78.7974 102.202 78.8361 101.699 78.9135V91.0263C101.931 91.065 102.163 91.065 102.357 91.1037C102.589 91.1037 102.782 91.1037 102.975 91.1037C103.169 91.1037 103.362 91.1037 103.555 91.065C103.749 91.065 103.942 91.0263 104.174 90.9876V80.771C104.368 80.7323 104.6 80.7323 104.832 80.7323C105.489 80.7323 105.992 80.8871 106.417 81.2354C106.804 81.5837 107.036 82.0868 107.036 82.7834C107.036 83.1317 106.959 83.4413 106.804 83.7122C106.649 83.9831 106.495 84.2153 106.262 84.3701C106.069 84.5635 105.837 84.7183 105.605 84.8344C105.373 84.9505 105.18 85.0666 105.025 85.144L104.638 85.3375L107.809 90.9489C108.235 91.0263 108.66 91.065 109.086 91.065C109.356 91.065 109.588 91.065 109.859 91.0263C110.091 90.9876 110.362 90.9876 110.555 90.9489L107.616 85.8406L107.887 85.6471C108.08 85.531 108.273 85.3762 108.467 85.2214C108.66 85.0279 108.854 84.7957 109.047 84.5635C109.202 84.2927 109.356 84.0218 109.472 83.6735C109.588 83.3252 109.627 82.9382 109.627 82.4738C109.627 81.7385 109.472 81.1193 109.163 80.6162C108.854 80.1131 108.467 79.7262 108.003 79.4553C107.5 79.1844 106.959 78.9522 106.379 78.8748C105.798 78.7974 105.18 78.72 104.561 78.72C104.02 78.72 103.555 78.72 103.091 78.7587ZM47.0168 91.0263V78.9135C47.4422 78.8361 47.8289 78.7974 48.2543 78.7974C48.6797 78.7974 49.0664 78.8361 49.4918 78.9135V91.0263C49.0664 91.1037 48.641 91.1424 48.2543 91.1424C47.8676 91.1424 47.4422 91.1037 47.0168 91.0263ZM51.5028 78.8361C51.2707 78.8748 51.0387 78.8748 50.8454 78.9135L54.7126 91.0263C54.9833 91.065 55.2153 91.1037 55.4087 91.1037C55.6407 91.1037 55.8341 91.1424 56.0661 91.1424C56.2981 91.1424 56.5302 91.1424 56.7622 91.1037C56.9942 91.1037 57.2263 91.065 57.4583 91.0263L61.3642 78.9135C61.1321 78.8748 60.9388 78.8748 60.7067 78.8361C60.5134 78.8361 60.2813 78.8361 60.088 78.8361C59.856 78.8361 59.6626 78.8361 59.4692 78.8361C59.2759 78.8361 59.0438 78.8748 58.8118 78.9135L56.1434 88.4722L53.4751 78.9135C53.011 78.8361 52.5469 78.7974 52.1215 78.7974C51.9668 78.8361 51.7735 78.8361 51.5028 78.8361ZM94.3515 78.8361C94.1194 78.8361 93.9261 78.8748 93.6941 78.9135L89.8655 91.0263C90.2522 91.1037 90.6776 91.1424 91.103 91.1424C91.4897 91.1424 91.8765 91.1037 92.2632 91.0263L92.9593 88.5883H96.9812L97.6386 91.0263C98.0253 91.1037 98.4507 91.1424 98.8761 91.1424C99.3015 91.1424 99.7656 91.1037 100.23 91.0263L96.4398 78.9135C96.1691 78.8748 95.937 78.8748 95.7437 78.8361C95.5116 78.8361 95.3183 78.7974 95.0862 78.7974C94.8155 78.8361 94.5835 78.8361 94.3515 78.8361ZM111.909 78.9135C112.141 78.8748 112.334 78.8748 112.527 78.8361C112.721 78.8361 112.953 78.8361 113.146 78.8361C113.339 78.8361 113.533 78.8361 113.726 78.8361C113.92 78.8361 114.152 78.8748 114.345 78.9135V91.065C114.113 91.1037 113.92 91.1037 113.726 91.1424C113.533 91.1424 113.339 91.1424 113.107 91.1424C112.914 91.1424 112.721 91.1424 112.489 91.1424C112.295 91.1424 112.063 91.1037 111.87 91.065V78.9135H111.909ZM118.754 78.8361C118.522 78.8361 118.29 78.8748 118.019 78.9135L114.732 84.9118L118.29 90.9876C118.56 91.0263 118.792 91.065 119.024 91.065C119.256 91.065 119.45 91.065 119.643 91.065C119.836 91.065 120.068 91.065 120.3 91.0263C120.532 90.9876 120.803 90.9876 121.035 90.9489L117.439 84.6796L120.765 78.8361C120.494 78.7974 120.262 78.7974 120.03 78.7587C119.798 78.72 119.566 78.72 119.372 78.72C119.179 78.8361 118.947 78.8361 118.754 78.8361ZM62.7564 78.9135V91.0263H69.756C69.8334 90.678 69.872 90.3297 69.872 89.9814C69.872 89.6331 69.8334 89.2848 69.756 88.9366H65.2314V85.7245H68.7505C68.8279 85.3762 68.8666 85.0279 68.8666 84.6796C68.8666 84.3314 68.8279 83.9831 68.7505 83.6348H65.2314V81.0032H69.64C69.7173 80.6549 69.756 80.3066 69.756 79.9583C69.756 79.6101 69.7173 79.2618 69.64 78.9135H62.7564V78.9135ZM84.4901 80.8097V85.1053C84.6448 85.144 84.7608 85.144 84.8768 85.144H85.3022C85.5729 85.144 85.8436 85.1053 86.1143 85.0279C86.385 84.9505 86.6171 84.8344 86.8491 84.6796C87.0424 84.5248 87.2358 84.2927 87.3518 84.0218C87.4678 83.7509 87.5452 83.4026 87.5452 83.0156C87.5452 82.5899 87.4678 82.2416 87.3518 81.9707C87.2358 81.6998 87.0424 81.4676 86.8491 81.2741C86.6557 81.1193 86.385 80.9645 86.1143 80.8871C85.8436 80.8097 85.5729 80.771 85.3022 80.771C85.1862 80.771 85.0702 80.771 84.9542 80.771C84.8768 80.771 84.7221 80.771 84.4901 80.8097ZM96.4011 86.5759L95.0089 81.5063L93.5394 86.5759H96.4011ZM56.8395 96.0185C57.2649 95.5541 57.7677 95.1671 58.3477 94.9349C58.9278 94.664 59.6239 94.5479 60.3587 94.5479C60.9001 94.5479 61.3642 94.5866 61.7896 94.664C62.1763 94.7414 62.5243 94.8188 62.8337 94.9349C62.8337 95.1671 62.7564 95.3606 62.7177 95.5541C62.6403 95.7476 62.563 95.9411 62.4857 96.1346C62.331 96.0959 62.215 96.0572 62.0603 96.0185C61.9443 95.9798 61.7896 95.9411 61.6349 95.9024C61.4802 95.8637 61.3255 95.8637 61.1321 95.825C60.9388 95.825 60.7454 95.7863 60.4747 95.7863C59.4306 95.7863 58.6184 96.1346 58.0384 96.8699C57.4583 97.5665 57.1489 98.6113 57.1489 99.9271C57.1489 100.624 57.2263 101.204 57.3809 101.707C57.5356 102.21 57.7677 102.636 58.077 102.946C58.3864 103.255 58.7345 103.526 59.1599 103.681C59.5853 103.836 60.0493 103.913 60.5521 103.913C60.9774 103.913 61.3255 103.874 61.6349 103.797C61.9443 103.72 62.2536 103.642 62.563 103.526C62.7564 103.952 62.9111 104.339 62.9497 104.726C62.563 104.881 62.1376 105.035 61.7122 105.113C61.2868 105.19 60.8228 105.229 60.32 105.229C59.5853 105.229 58.8892 105.113 58.2704 104.842C57.6516 104.61 57.1489 104.261 56.7622 103.797C56.3368 103.333 56.0274 102.791 55.7954 102.133C55.5634 101.475 55.4473 100.74 55.4473 99.9271C55.4473 99.1144 55.5634 98.3404 55.7954 97.6826C56.1048 97.0634 56.4141 96.4829 56.8395 96.0185ZM76.6783 95.2832C76.0982 95.7863 75.7889 96.4829 75.7889 97.3343C75.7889 97.6826 75.8275 98.0309 75.9436 98.263C76.0209 98.5339 76.1756 98.7661 76.3303 98.9596C76.485 99.1531 76.717 99.3466 76.949 99.4627C77.1811 99.6175 77.4518 99.7336 77.7225 99.8497L78.5346 100.198C78.844 100.314 79.1533 100.469 79.3854 100.585C79.6174 100.701 79.8494 100.817 80.0041 100.972C80.1588 101.127 80.2748 101.282 80.3908 101.475C80.4682 101.669 80.5069 101.901 80.5069 102.172C80.5069 102.713 80.3135 103.139 79.9268 103.487C79.5401 103.797 78.96 103.952 78.1479 103.952C77.6451 103.952 77.2197 103.913 76.8717 103.836C76.5236 103.758 76.1756 103.642 75.8662 103.526C75.7889 103.72 75.7115 103.952 75.6342 104.184C75.5568 104.416 75.5182 104.61 75.5182 104.842C75.7115 104.919 75.9049 104.958 76.0982 105.035C76.2916 105.113 76.485 105.151 76.717 105.19C76.9104 105.229 77.1424 105.268 77.3744 105.268C77.6065 105.268 77.8772 105.306 78.1865 105.306C79.424 105.306 80.3908 105.035 81.0483 104.455C81.7444 103.874 82.0924 103.1 82.0924 102.094C82.0924 101.669 82.0537 101.32 81.9377 101.011C81.8217 100.701 81.667 100.43 81.435 100.198C81.2416 99.9658 80.9709 99.7723 80.6616 99.6175C80.3522 99.4627 80.0041 99.2692 79.6174 99.1144L78.8053 98.8048C78.6119 98.7274 78.4186 98.65 78.2252 98.5339C78.0319 98.4178 77.8772 98.3405 77.7611 98.2244C77.6451 98.1083 77.5291 97.9535 77.4518 97.7987C77.3744 97.6439 77.3358 97.4504 77.3358 97.2569C77.3358 96.7538 77.4904 96.4055 77.8385 96.1346C78.1479 95.9024 78.6506 95.7476 79.2307 95.7476C79.6561 95.7476 80.0428 95.7863 80.3908 95.8637C80.7389 95.9411 81.0483 96.0185 81.2803 96.1346C81.435 95.7476 81.551 95.3606 81.5897 94.9349C81.2803 94.8188 80.8936 94.7027 80.5069 94.664C80.0815 94.5866 79.6561 94.5479 79.192 94.5479C78.1092 94.5479 77.2584 94.7801 76.6783 95.2832ZM84.8381 96.0185C85.2635 95.5541 85.7663 95.1671 86.3464 94.9349C86.9264 94.664 87.6225 94.5479 88.3573 94.5479C88.8987 94.5479 89.3628 94.5866 89.7882 94.664C90.1749 94.7414 90.5229 94.8188 90.8323 94.9349C90.8323 95.1671 90.755 95.3606 90.7163 95.5541C90.639 95.7476 90.5616 95.9411 90.4843 96.1346C90.3296 96.0959 90.2136 96.0572 90.0589 96.0185C89.9429 95.9798 89.7882 95.9411 89.6335 95.9024C89.4788 95.8637 89.3241 95.8637 89.1307 95.825C88.9374 95.825 88.744 95.7863 88.4733 95.7863C87.4292 95.7863 86.6171 96.1346 86.037 96.8699C85.4569 97.5665 85.1475 98.6113 85.1475 99.9271C85.1475 100.624 85.2249 101.204 85.3796 101.707C85.5342 102.21 85.7663 102.636 86.0756 102.946C86.385 103.255 86.7331 103.526 87.1585 103.681C87.5839 103.836 88.0479 103.913 88.5507 103.913C88.9761 103.913 89.3241 103.874 89.6335 103.797C89.9429 103.72 90.2522 103.642 90.5616 103.526C90.755 103.952 90.9097 104.339 90.9483 104.726C90.5616 104.881 90.1362 105.035 89.7108 105.113C89.2854 105.19 88.8214 105.229 88.3186 105.229C87.5839 105.229 86.8878 105.113 86.269 104.842C85.6503 104.61 85.1475 104.261 84.7608 103.797C84.3354 103.333 84.026 102.791 83.794 102.133C83.562 101.475 83.4459 100.74 83.4459 99.9271C83.4459 99.1144 83.562 98.3404 83.794 97.6826C84.1034 97.0634 84.4514 96.4829 84.8381 96.0185ZM103.517 96.0572C103.865 95.5928 104.329 95.2058 104.87 94.9349C105.412 94.664 106.069 94.5479 106.843 94.5479C107.577 94.5479 108.235 94.664 108.815 94.9349C109.356 95.2058 109.82 95.5928 110.168 96.0572C110.516 96.5216 110.787 97.1021 110.98 97.76C111.135 98.4178 111.251 99.1144 111.251 99.9271C111.251 100.701 111.174 101.436 110.98 102.094C110.787 102.752 110.555 103.294 110.168 103.797C109.82 104.261 109.356 104.648 108.815 104.919C108.273 105.19 107.616 105.306 106.843 105.306C106.108 105.306 105.45 105.19 104.87 104.919C104.329 104.648 103.865 104.3 103.517 103.797C103.169 103.333 102.898 102.752 102.705 102.094C102.511 101.436 102.434 100.74 102.434 99.9271C102.434 99.1531 102.511 98.4178 102.705 97.76C102.898 97.1021 103.169 96.5216 103.517 96.0572ZM114.074 96.0572C114.422 95.5928 114.886 95.2058 115.428 94.9349C115.969 94.664 116.627 94.5479 117.4 94.5479C118.173 94.5479 118.792 94.664 119.372 94.9349C119.914 95.2058 120.378 95.5928 120.726 96.0572C121.074 96.5216 121.345 97.1021 121.538 97.76C121.693 98.4178 121.809 99.1144 121.809 99.9271C121.809 100.701 121.731 101.436 121.538 102.094C121.383 102.752 121.113 103.294 120.726 103.797C120.378 104.261 119.914 104.648 119.372 104.919C118.831 105.19 118.173 105.306 117.4 105.306C116.627 105.306 116.008 105.19 115.428 104.919C114.886 104.648 114.422 104.3 114.074 103.797C113.726 103.333 113.456 102.752 113.262 102.094C113.069 101.436 112.991 100.74 112.991 99.9271C112.991 99.1531 113.069 98.4178 113.262 97.76C113.456 97.1021 113.726 96.5216 114.074 96.0572ZM28.6476 94.5866C28.1835 94.6253 27.7968 94.664 27.4487 94.7027V105.074C27.7581 105.113 28.1448 105.151 28.6089 105.19C29.0343 105.229 29.4984 105.229 29.9624 105.229C31.78 105.229 33.1722 104.803 34.0617 103.913C34.9898 103.023 35.4539 101.707 35.4539 99.8884C35.4539 98.147 34.9898 96.8312 34.1003 95.9024C33.2109 94.9736 31.8187 94.5092 30.0011 94.5092C29.5757 94.5479 29.1116 94.5866 28.6476 94.5866ZM39.5531 94.7027C39.6691 94.664 39.8238 94.664 39.9785 94.664C40.1332 94.664 40.2879 94.664 40.4426 94.664C40.5586 94.664 40.7133 94.664 40.868 94.664C41.0226 94.664 41.1387 94.7027 41.2933 94.7027L44.6578 105.074C44.5418 105.074 44.4258 105.113 44.2711 105.113C44.1164 105.113 44.0004 105.113 43.8457 105.113C43.7297 105.113 43.575 105.113 43.459 105.113C43.343 105.113 43.1883 105.074 43.0723 105.074L42.3375 102.675H38.3929L37.6968 105.074C37.5808 105.074 37.4648 105.113 37.3101 105.113C37.1941 105.113 37.0781 105.113 36.9234 105.113C36.8074 105.113 36.6527 105.113 36.5367 105.113C36.4207 105.113 36.3046 105.074 36.1886 105.074L39.5531 94.7027ZM52.3922 94.664C52.2762 94.664 52.1602 94.7027 52.0442 94.7027V102.481L47.5196 94.7027C47.4035 94.664 47.2875 94.664 47.1715 94.664C47.0555 94.664 46.9395 94.664 46.8235 94.664C46.7074 94.664 46.5914 94.664 46.4754 94.664C46.3594 94.664 46.2434 94.7027 46.1274 94.7027V105.074C46.2047 105.074 46.3207 105.113 46.4367 105.113C46.5528 105.113 46.6688 105.113 46.8235 105.113C46.9395 105.113 47.0555 105.113 47.1715 105.113C47.2875 105.113 47.4035 105.074 47.5196 105.074V97.3343L52.0442 105.074C52.1602 105.074 52.2762 105.113 52.3922 105.113C52.5083 105.113 52.6243 105.113 52.7403 105.113C52.8563 105.113 52.9723 105.113 53.0883 105.113C53.2044 105.113 53.3204 105.074 53.4364 105.074V94.7027C53.3204 94.664 53.2044 94.664 53.0883 94.664C52.9723 94.664 52.8563 94.664 52.7403 94.664C52.6243 94.664 52.5083 94.664 52.3922 94.664ZM98.8374 94.7027C98.9535 94.664 99.0695 94.664 99.1855 94.664C99.3015 94.664 99.4175 94.664 99.5722 94.664C99.6882 94.664 99.8429 94.664 99.9589 94.664C100.075 94.664 100.23 94.7027 100.346 94.7027V105.074C100.23 105.074 100.114 105.113 99.9976 105.113C99.8816 105.113 99.7269 105.113 99.6109 105.113C99.4949 105.113 99.3402 105.113 99.2242 105.113C99.1081 105.113 98.9921 105.074 98.8761 105.074V100.275H94.4675V105.074C94.3515 105.074 94.2355 105.113 94.1194 105.113C94.0034 105.113 93.8874 105.113 93.7327 105.113C93.6167 105.113 93.462 105.113 93.346 105.113C93.23 105.113 93.114 105.074 92.998 105.074V94.7027C93.114 94.664 93.23 94.664 93.346 94.664C93.462 94.664 93.578 94.664 93.7327 94.664C93.8487 94.664 94.0034 94.664 94.1194 94.664C94.2355 94.664 94.3515 94.7027 94.4675 94.7027V98.9596H98.8761V94.7027H98.8374ZM124.284 94.664C124.168 94.664 124.052 94.7027 123.936 94.7027V105.074H129.466C129.504 104.881 129.504 104.648 129.504 104.416C129.504 104.339 129.504 104.223 129.504 104.107C129.504 103.991 129.504 103.874 129.466 103.758H125.405V94.7027C125.289 94.664 125.173 94.664 125.057 94.664C124.941 94.664 124.825 94.664 124.67 94.664C124.516 94.664 124.4 94.664 124.284 94.664ZM64.922 105.074V94.7027H70.6455C70.6841 94.8962 70.6842 95.0897 70.6842 95.3219C70.6842 95.438 70.6842 95.5541 70.6842 95.6702C70.6842 95.7863 70.6841 95.9024 70.6455 95.9798H66.3915V98.9596H69.7947C69.7947 99.037 69.8334 99.1531 69.8334 99.2692C69.8334 99.3853 69.8334 99.5014 69.8334 99.5788C69.8334 99.6949 69.8334 99.811 69.8334 99.9271C69.8334 100.043 69.7947 100.159 69.7947 100.237H66.3915V103.797H70.7615C70.8002 103.991 70.8002 104.184 70.8002 104.416C70.8002 104.532 70.8002 104.648 70.8002 104.765C70.8002 104.881 70.8002 104.997 70.7615 105.074H64.922ZM105.605 103.72C105.257 103.526 104.948 103.255 104.716 102.907C104.484 102.559 104.329 102.133 104.213 101.63C104.097 101.127 104.058 100.546 104.058 99.9271C104.058 99.3079 104.097 98.7274 104.213 98.2244C104.329 97.7213 104.484 97.2956 104.716 96.9473C104.948 96.599 105.257 96.3281 105.605 96.1346C105.953 95.9411 106.379 95.8637 106.843 95.8637C107.307 95.8637 107.732 95.9411 108.08 96.1346C108.428 96.3281 108.738 96.599 108.97 96.9473C109.202 97.2956 109.356 97.7213 109.472 98.2244C109.588 98.7274 109.627 99.3079 109.627 99.9271C109.627 100.546 109.588 101.127 109.472 101.63C109.356 102.133 109.202 102.559 108.97 102.907C108.738 103.255 108.428 103.526 108.08 103.72C107.732 103.913 107.307 103.991 106.843 103.991C106.379 103.991 105.953 103.913 105.605 103.72ZM116.163 103.72C115.815 103.526 115.505 103.255 115.273 102.907C115.041 102.559 114.886 102.133 114.77 101.63C114.654 101.127 114.616 100.546 114.616 99.9271C114.616 99.3079 114.654 98.7274 114.77 98.2244C114.886 97.7213 115.041 97.2956 115.273 96.9473C115.505 96.599 115.815 96.3281 116.163 96.1346C116.511 95.9411 116.936 95.8637 117.4 95.8637C117.864 95.8637 118.29 95.9411 118.638 96.1346C118.986 96.3281 119.295 96.599 119.527 96.9473C119.759 97.2956 119.914 97.7213 120.03 98.2244C120.146 98.7274 120.184 99.3079 120.184 99.9271C120.184 100.546 120.146 101.127 120.03 101.63C119.914 102.133 119.759 102.559 119.527 102.907C119.295 103.255 118.986 103.526 118.638 103.72C118.29 103.913 117.864 103.991 117.4 103.991C116.936 103.991 116.511 103.913 116.163 103.72ZM28.9569 103.874C29.073 103.874 29.2663 103.913 29.4597 103.913C29.653 103.913 29.8851 103.952 30.0784 103.952C30.6585 103.952 31.1613 103.874 31.6253 103.758C32.0894 103.642 32.4761 103.41 32.8242 103.1C33.1722 102.791 33.4042 102.365 33.5976 101.862C33.791 101.32 33.8683 100.662 33.8683 99.8884C33.8683 99.1531 33.791 98.5339 33.5976 98.0309C33.4042 97.5278 33.1722 97.1021 32.8242 96.7925C32.4761 96.4829 32.0894 96.2507 31.6253 96.0959C31.1613 95.9411 30.6585 95.8637 30.0784 95.8637C29.8851 95.8637 29.6917 95.8637 29.4597 95.8637C29.2276 95.8637 29.0343 95.9024 28.8796 95.9024V103.874H28.9569ZM40.3652 96.0959L41.9508 101.398H38.7797L40.3652 96.0959Z" fill="white"/>
<path d="M53.3187 112.116C53.3574 112.116 53.3961 112.116 53.4734 112.116C53.5121 112.116 53.5894 112.116 53.6281 112.116C53.6668 112.116 53.7054 112.116 53.7828 112.116C53.8215 112.116 53.8988 112.116 53.9375 112.116V113.819C54.0148 113.703 54.1308 113.587 54.2855 113.509C54.4402 113.432 54.6336 113.393 54.8269 113.393C55.0203 113.393 55.175 113.432 55.3297 113.47C55.4844 113.548 55.6004 113.625 55.7164 113.741C55.8324 113.857 55.9098 114.012 55.9871 114.206C56.0645 114.399 56.0645 114.631 56.0645 114.902C56.0645 115.444 55.9098 115.831 55.6004 116.141C55.291 116.45 54.8656 116.605 54.3242 116.605C54.1308 116.605 53.9762 116.605 53.7828 116.566C53.5894 116.528 53.4347 116.489 53.3187 116.45V112.116V112.116ZM53.9375 115.986C54.0148 116.025 54.0922 116.025 54.1695 116.025C54.2469 116.025 54.3242 116.025 54.4402 116.025C54.5949 116.025 54.7109 115.986 54.8656 115.947C54.9816 115.908 55.0976 115.831 55.175 115.754C55.2523 115.676 55.3297 115.521 55.407 115.405C55.4457 115.251 55.4844 115.096 55.4844 114.902C55.4844 114.554 55.4457 114.322 55.3297 114.128C55.2137 113.935 55.0203 113.857 54.7496 113.857C54.6723 113.857 54.5562 113.857 54.4789 113.896C54.4015 113.935 54.3242 113.974 54.2469 114.051C54.1695 114.128 54.0922 114.206 54.0535 114.322C54.0148 114.438 53.9762 114.554 53.9762 114.709V115.986H53.9375Z" fill="white"/>
<path d="M58.1563 116.49C58.1176 116.49 58.079 116.49 58.0403 116.49C58.0016 116.49 57.9629 116.49 57.9243 116.49C57.8856 116.49 57.8469 116.49 57.8083 116.49C57.7696 116.49 57.7309 116.49 57.6922 116.49L56.6868 113.433C56.7254 113.433 56.8028 113.433 56.8415 113.433C56.8801 113.433 56.9575 113.433 56.9961 113.433C57.0348 113.433 57.1122 113.433 57.1508 113.433C57.1895 113.433 57.2669 113.433 57.3055 113.433L58.1563 116.297L59.0458 113.433C59.1231 113.433 59.2391 113.433 59.3551 113.433C59.3938 113.433 59.4325 113.433 59.5098 113.433C59.5485 113.433 59.6258 113.433 59.6645 113.433L58.4657 117.148C58.427 117.303 58.3497 117.458 58.311 117.574C58.2337 117.69 58.195 117.767 58.1176 117.845C58.0403 117.922 57.9629 117.961 57.8469 118C57.7696 118.038 57.6536 118.038 57.5376 118.038C57.4602 118.038 57.3442 118.038 57.2668 118C57.1895 118 57.1122 117.961 57.0348 117.961C57.0348 117.884 57.0348 117.806 57.0735 117.729C57.0735 117.651 57.1122 117.574 57.1508 117.497C57.1895 117.497 57.2282 117.535 57.3055 117.535C57.3829 117.535 57.4215 117.574 57.4989 117.574C57.5376 117.574 57.6149 117.574 57.6536 117.574C57.6922 117.574 57.7309 117.535 57.7696 117.497C57.8083 117.458 57.8469 117.419 57.8856 117.38C57.9243 117.342 57.9629 117.264 58.0016 117.148L58.1563 116.49Z" fill="white"/>
<path d="M62.3711 112.195C62.4484 112.195 62.5258 112.195 62.6031 112.156C62.6805 112.156 62.7578 112.156 62.7965 112.117C62.8352 112.078 62.9512 112.117 63.0285 112.117C63.1059 112.117 63.1832 112.117 63.2605 112.117C63.4539 112.117 63.6473 112.156 63.8793 112.195C64.0727 112.233 64.266 112.311 64.4207 112.388C64.5754 112.504 64.6914 112.62 64.8074 112.775C64.9235 112.93 64.9621 113.162 64.9621 113.433C64.9621 113.588 64.9235 113.743 64.8848 113.859C64.8461 113.975 64.7688 114.091 64.6914 114.207C64.6141 114.323 64.5367 114.4 64.4207 114.478C64.3047 114.555 64.2274 114.594 64.1113 114.671L64.034 114.71L65.2715 116.529C65.1555 116.529 65.0395 116.529 64.9235 116.529C64.8074 116.529 64.6914 116.529 64.6141 116.529L63.2219 114.517V114.478H63.2605C63.3766 114.439 63.4926 114.4 63.6086 114.362C63.7246 114.323 63.8406 114.246 63.9566 114.168C64.0727 114.091 64.15 114.013 64.2274 113.897C64.3047 113.781 64.3434 113.665 64.3434 113.51C64.3434 113.239 64.266 113.007 64.0727 112.852C63.918 112.698 63.6859 112.659 63.3766 112.659C63.2992 112.659 63.2606 112.659 63.1832 112.659C63.1445 112.659 63.0672 112.659 62.9898 112.659V116.49C62.9512 116.49 62.9125 116.49 62.8352 116.49C62.7965 116.49 62.7191 116.49 62.6805 116.49C62.6418 116.49 62.5645 116.49 62.5258 116.49C62.4871 116.49 62.4098 116.49 62.3711 116.49V112.195V112.195Z" fill="white"/>
<path d="M66.2349 112.195C66.3896 112.195 66.5442 112.156 66.7376 112.156C66.931 112.156 67.1243 112.117 67.3177 112.117C68.0911 112.117 68.6325 112.311 69.0193 112.698C69.406 113.085 69.5607 113.627 69.5607 114.362C69.5607 115.097 69.3673 115.678 68.9806 116.026C68.5939 116.374 68.0138 116.568 67.279 116.568C67.0857 116.568 66.8923 116.568 66.7376 116.529C66.5442 116.529 66.3895 116.49 66.2735 116.49V112.195H66.2349ZM66.8536 115.987C66.8923 115.987 66.9696 115.987 67.047 116.026C67.1243 116.026 67.2017 116.026 67.3177 116.026C67.5497 116.026 67.7818 115.987 67.9751 115.949C68.1685 115.91 68.3232 115.794 68.4778 115.678C68.6325 115.562 68.7099 115.368 68.7872 115.175C68.8646 114.942 68.9032 114.672 68.9032 114.362C68.9032 114.052 68.8646 113.82 68.7872 113.588C68.7099 113.394 68.5939 113.201 68.4778 113.085C68.3232 112.969 68.1685 112.853 67.9751 112.775C67.7818 112.698 67.5884 112.698 67.3564 112.698C67.279 112.698 67.2017 112.698 67.1243 112.698C67.047 112.698 66.9696 112.698 66.8923 112.737V115.987H66.8536Z" fill="white"/>
<path d="M70.6077 115.833C70.7238 115.871 70.8784 115.91 71.0331 115.949C71.1878 115.987 71.3425 115.987 71.5745 115.987C71.8839 115.987 72.1546 115.91 72.3093 115.794C72.464 115.678 72.5413 115.484 72.5413 115.252C72.5413 115.136 72.5413 115.059 72.5027 114.981C72.464 114.904 72.4253 114.826 72.348 114.788C72.2706 114.749 72.1933 114.672 72.0773 114.633C71.9613 114.594 71.8453 114.517 71.7292 114.478L71.3812 114.323C71.2652 114.285 71.1492 114.207 71.0718 114.168C70.9945 114.13 70.8784 114.052 70.8398 113.975C70.7624 113.898 70.7238 113.781 70.6851 113.665C70.6464 113.549 70.6077 113.433 70.6077 113.278C70.6077 112.93 70.7238 112.621 70.9945 112.427C71.2265 112.234 71.5745 112.117 72.0386 112.117C72.232 112.117 72.4253 112.117 72.58 112.156C72.7347 112.195 72.8894 112.234 73.0441 112.272C73.0054 112.427 72.9667 112.621 72.9281 112.775C72.8121 112.737 72.696 112.698 72.5413 112.659C72.3867 112.621 72.232 112.621 72.0773 112.621C71.8066 112.621 71.6132 112.659 71.4972 112.775C71.3425 112.891 71.3038 113.046 71.3038 113.24C71.3038 113.317 71.3038 113.395 71.3425 113.472C71.3812 113.549 71.4199 113.588 71.4585 113.627C71.4972 113.665 71.5745 113.704 71.6519 113.743C71.7292 113.781 71.8066 113.82 71.8839 113.859L72.232 113.975C72.3867 114.052 72.5413 114.091 72.6574 114.168C72.7734 114.246 72.8894 114.323 72.9667 114.401C73.0441 114.478 73.1214 114.594 73.1601 114.749C73.1988 114.904 73.2374 115.02 73.2374 115.213C73.2374 115.639 73.0828 115.949 72.8121 116.181C72.5413 116.413 72.116 116.529 71.6132 116.529C71.4972 116.529 71.3812 116.529 71.2652 116.529C71.1492 116.529 71.0718 116.49 70.9945 116.49C70.9171 116.49 70.8398 116.452 70.7624 116.413C70.6851 116.374 70.6077 116.374 70.5304 116.336C70.5304 116.258 70.5691 116.142 70.5691 116.065C70.5304 116.026 70.5691 115.91 70.6077 115.833Z" fill="white"/>
<path d="M78.109 115.484H76.4848L76.1754 116.491C76.1367 116.491 76.0594 116.491 76.0207 116.491C75.982 116.491 75.9047 116.491 75.866 116.491C75.8273 116.491 75.75 116.491 75.7113 116.491C75.6727 116.491 75.5953 116.491 75.5566 116.491L76.9488 112.195C76.9875 112.195 77.0649 112.195 77.1035 112.195C77.1809 112.195 77.2195 112.195 77.2969 112.195C77.3356 112.195 77.4129 112.195 77.4516 112.195C77.5289 112.195 77.5676 112.195 77.6063 112.195L78.9985 116.491C78.9598 116.491 78.8824 116.491 78.8438 116.491C78.7664 116.491 78.7278 116.491 78.6891 116.491C78.6504 116.491 78.5731 116.491 78.5344 116.491C78.4957 116.491 78.4184 116.491 78.3797 116.491L78.109 115.484ZM76.6395 114.981H77.9543L77.2969 112.775L76.6395 114.981Z" fill="white"/>
<path d="M79.9258 113.433C79.9645 113.433 80.0032 113.433 80.0418 113.433C80.0805 113.433 80.1192 113.433 80.1579 113.433C80.1965 113.433 80.2352 113.433 80.2739 113.433C80.3125 113.433 80.3512 113.433 80.3899 113.433C80.3899 113.51 80.4286 113.588 80.4286 113.665C80.4286 113.743 80.4286 113.859 80.4286 113.897C80.5059 113.743 80.6219 113.626 80.7766 113.549C80.9313 113.433 81.086 113.394 81.318 113.394C81.3567 113.394 81.3954 113.394 81.434 113.394C81.4727 113.394 81.5114 113.394 81.5114 113.394C81.5114 113.433 81.5114 113.472 81.5114 113.51C81.5114 113.549 81.5114 113.588 81.5114 113.626C81.5114 113.665 81.5114 113.743 81.5114 113.781C81.5114 113.82 81.5114 113.897 81.4727 113.936C81.434 113.936 81.3954 113.936 81.3567 113.936C81.318 113.936 81.2794 113.936 81.2794 113.936C81.1633 113.936 81.086 113.936 80.97 113.975C80.854 114.013 80.7766 114.052 80.6993 114.13C80.6219 114.207 80.5446 114.323 80.5059 114.439C80.4672 114.555 80.4286 114.749 80.4286 114.942V116.452C80.3899 116.452 80.3512 116.452 80.2739 116.452C80.2352 116.452 80.1579 116.452 80.1192 116.452C80.0805 116.452 80.0418 116.452 79.9645 116.452C79.9258 116.452 79.8485 116.452 79.8098 116.452V113.433H79.9258Z" fill="white"/>
<path d="M82.5547 113.898H82.0907L82.052 113.82L83.0962 112.659H83.1348V113.433H83.9083C83.9083 113.511 83.9469 113.588 83.9469 113.665C83.9469 113.704 83.9469 113.743 83.9469 113.781C83.9469 113.82 83.9469 113.859 83.9469 113.898H83.1735V115.291C83.1735 115.446 83.1735 115.6 83.2122 115.678C83.2122 115.794 83.2508 115.871 83.2895 115.91C83.3282 115.949 83.3669 115.987 83.4442 116.026C83.4829 116.026 83.5602 116.065 83.6762 116.065C83.7536 116.065 83.7923 116.065 83.8696 116.065C83.9469 116.065 83.9856 116.026 84.0243 116.026C84.063 116.103 84.063 116.181 84.063 116.258C84.063 116.336 84.063 116.413 84.063 116.49C83.9856 116.529 83.9083 116.529 83.7923 116.529C83.7149 116.529 83.5989 116.529 83.5216 116.529C83.2508 116.529 83.0188 116.452 82.8641 116.336C82.7094 116.181 82.6321 115.949 82.6321 115.639V113.898H82.5547Z" fill="white"/>
<path d="M89.1685 114.246C89.2072 114.246 89.2846 114.246 89.3232 114.246C89.3619 114.246 89.4392 114.246 89.4779 114.246C89.5166 114.246 89.5939 114.246 89.6326 114.246C89.6713 114.246 89.7486 114.246 89.7873 114.246V116.335C89.7099 116.374 89.5939 116.413 89.5166 116.413C89.4006 116.451 89.3232 116.451 89.2072 116.49C89.0912 116.49 88.9752 116.529 88.8978 116.529C88.7818 116.529 88.7045 116.529 88.5884 116.529C88.2791 116.529 87.9697 116.49 87.7377 116.374C87.467 116.258 87.2736 116.142 87.0802 115.948C86.8869 115.755 86.7708 115.523 86.6935 115.252C86.6162 114.981 86.5388 114.671 86.5388 114.323C86.5388 113.975 86.5775 113.665 86.6935 113.394C86.7708 113.123 86.9255 112.891 87.1189 112.698C87.3123 112.504 87.5056 112.349 87.7377 112.233C87.9697 112.117 88.2404 112.078 88.5498 112.078C88.7818 112.078 88.9752 112.078 89.1299 112.117C89.2846 112.156 89.4392 112.195 89.5939 112.233C89.5939 112.311 89.5553 112.427 89.5553 112.504C89.5166 112.582 89.5166 112.659 89.4779 112.736C89.3619 112.698 89.2459 112.659 89.1299 112.659C89.0138 112.62 88.8205 112.62 88.6271 112.62C88.4338 112.62 88.2404 112.659 88.047 112.736C87.8923 112.814 87.7377 112.93 87.6216 113.085C87.5056 113.239 87.3896 113.394 87.3509 113.626C87.2736 113.859 87.2349 114.091 87.2349 114.362C87.2349 114.633 87.2736 114.904 87.3509 115.097C87.4283 115.291 87.5056 115.484 87.6603 115.6C87.7763 115.755 87.931 115.832 88.1244 115.91C88.2791 115.987 88.4724 116.026 88.7045 116.026C88.8205 116.026 88.9365 116.026 89.0525 115.987C89.1685 115.948 89.2459 115.948 89.2845 115.948V114.246H89.1685Z" fill="white"/>
<path d="M90.9882 113.433C91.0269 113.433 91.0655 113.433 91.1042 113.433C91.1429 113.433 91.1816 113.433 91.2202 113.433C91.2589 113.433 91.2976 113.433 91.3363 113.433C91.3749 113.433 91.4136 113.433 91.4523 113.433C91.4523 113.51 91.4909 113.588 91.4909 113.665C91.4909 113.743 91.4909 113.859 91.4909 113.897C91.5683 113.743 91.6843 113.626 91.839 113.549C91.9937 113.433 92.1484 113.394 92.3804 113.394C92.4191 113.394 92.4577 113.394 92.4964 113.394C92.5351 113.394 92.5738 113.394 92.5738 113.394C92.5738 113.433 92.5738 113.472 92.5738 113.51C92.5738 113.549 92.5738 113.588 92.5738 113.626C92.5738 113.665 92.5738 113.743 92.5738 113.781C92.5738 113.82 92.5738 113.897 92.5351 113.936C92.4964 113.936 92.4577 113.936 92.4191 113.936C92.3804 113.936 92.3417 113.936 92.3417 113.936C92.2257 113.936 92.1484 113.936 92.0323 113.975C91.9163 114.013 91.839 114.052 91.7616 114.13C91.6843 114.207 91.607 114.323 91.5683 114.439C91.5296 114.555 91.4909 114.749 91.4909 114.942V116.452C91.4523 116.452 91.4136 116.452 91.3363 116.452C91.2976 116.452 91.2202 116.452 91.1816 116.452C91.1429 116.452 91.1042 116.452 91.0269 116.452C90.9882 116.452 90.9109 116.452 90.8722 116.452V113.433H90.9882Z" fill="white"/>
<path d="M94.6605 116.568C94.4285 116.568 94.1964 116.529 94.0417 116.452C93.8484 116.374 93.6937 116.258 93.5777 116.103C93.4617 115.948 93.3843 115.794 93.307 115.6C93.2296 115.407 93.2296 115.174 93.2296 114.981C93.2296 114.749 93.2683 114.555 93.307 114.362C93.3456 114.168 93.4617 114.013 93.5777 113.859C93.6937 113.704 93.8484 113.588 94.0417 113.51C94.2351 113.433 94.4285 113.394 94.6605 113.394C94.8925 113.394 95.1246 113.433 95.2792 113.51C95.4726 113.588 95.6273 113.704 95.7433 113.859C95.8593 114.013 95.9367 114.168 96.014 114.362C96.0527 114.555 96.0914 114.787 96.0914 114.981C96.0914 115.213 96.0527 115.407 96.014 115.6C95.9367 115.794 95.8593 115.948 95.7433 116.103C95.6273 116.258 95.4726 116.374 95.2792 116.452C95.1246 116.529 94.9312 116.568 94.6605 116.568ZM94.6605 116.103C94.9312 116.103 95.1246 115.987 95.2792 115.794C95.3953 115.6 95.4726 115.329 95.4726 114.942C95.4726 114.594 95.3953 114.323 95.2792 114.13C95.1632 113.936 94.9312 113.82 94.6605 113.82C94.3898 113.82 94.1964 113.936 94.0417 114.13C93.9257 114.323 93.8484 114.594 93.8484 114.942C93.8484 115.291 93.9257 115.561 94.0417 115.794C94.1964 115.987 94.3898 116.103 94.6605 116.103Z" fill="white"/>
<path d="M97.136 113.433C97.1747 113.433 97.2133 113.433 97.2907 113.433C97.3293 113.433 97.4067 113.433 97.4454 113.433C97.484 113.433 97.5227 113.433 97.6 113.433C97.6387 113.433 97.7161 113.433 97.7547 113.433V115.136C97.7547 115.329 97.7547 115.484 97.7934 115.6C97.8321 115.716 97.8708 115.832 97.9481 115.91C98.0254 115.987 98.1028 116.026 98.2188 116.065C98.3348 116.103 98.4508 116.103 98.5668 116.103C98.7602 116.103 98.9536 116.065 99.0696 116.026V113.433C99.1083 113.433 99.1469 113.433 99.2243 113.433C99.2629 113.433 99.3403 113.433 99.379 113.433C99.4176 113.433 99.4563 113.433 99.5336 113.433C99.5723 113.433 99.6497 113.433 99.6883 113.433V116.413C99.5337 116.452 99.379 116.49 99.1856 116.529C98.9922 116.568 98.7989 116.568 98.5668 116.568C98.3735 116.568 98.1801 116.568 98.0254 116.529C97.8708 116.49 97.7161 116.413 97.5614 116.336C97.4454 116.219 97.3293 116.103 97.252 115.91C97.1747 115.716 97.136 115.484 97.136 115.175V113.433V113.433Z" fill="white"/>
<path d="M100.927 113.433C100.966 113.433 101.005 113.433 101.043 113.433C101.082 113.433 101.121 113.433 101.159 113.433C101.198 113.433 101.237 113.433 101.275 113.433C101.314 113.433 101.353 113.433 101.391 113.433C101.391 113.433 101.391 113.472 101.391 113.51C101.391 113.549 101.391 113.588 101.391 113.626C101.391 113.665 101.391 113.704 101.391 113.781C101.391 113.859 101.391 113.859 101.391 113.859C101.43 113.781 101.469 113.743 101.546 113.665C101.585 113.588 101.662 113.549 101.74 113.51C101.817 113.472 101.894 113.433 102.01 113.394C102.126 113.356 102.204 113.356 102.32 113.356C102.513 113.356 102.668 113.394 102.822 113.433C102.977 113.51 103.093 113.588 103.209 113.704C103.325 113.82 103.402 113.975 103.48 114.168C103.557 114.362 103.557 114.594 103.557 114.865C103.557 115.407 103.402 115.794 103.132 116.103C102.861 116.413 102.436 116.568 101.933 116.568C101.856 116.568 101.74 116.568 101.662 116.568C101.585 116.568 101.507 116.529 101.43 116.529V117.922C101.391 117.922 101.314 117.922 101.275 117.922C101.237 117.922 101.159 117.922 101.121 117.922C101.082 117.922 101.043 117.922 100.966 117.922C100.927 117.922 100.85 117.922 100.811 117.922V113.433H100.927ZM101.507 115.987C101.585 116.026 101.662 116.026 101.74 116.065C101.817 116.103 101.933 116.065 102.049 116.065C102.204 116.065 102.32 116.026 102.436 115.987C102.552 115.948 102.668 115.871 102.745 115.794C102.822 115.716 102.9 115.561 102.938 115.445C102.977 115.291 103.016 115.136 103.016 114.942C103.016 114.633 102.938 114.362 102.822 114.168C102.706 113.975 102.513 113.897 102.242 113.897C102.126 113.897 102.049 113.897 101.972 113.936C101.894 113.975 101.817 114.013 101.74 114.091C101.662 114.168 101.624 114.246 101.585 114.362C101.546 114.478 101.507 114.594 101.507 114.749V115.987V115.987Z" fill="white"/>
<defs>
<linearGradient id="paint0_linear" x1="2.7451" y1="32.889" x2="72.4993" y2="13.5449" gradientUnits="userSpaceOnUse">
<stop stop-color="#7DC242"/>
<stop offset="0.3021" stop-color="#45C7F4"/>
<stop offset="0.6427" stop-color="#ED4D9B"/>
<stop offset="1" stop-color="#F68B1F"/>
</linearGradient>
<linearGradient id="paint1_linear" x1="5.13262" y1="41.5126" x2="74.8868" y2="22.1685" gradientUnits="userSpaceOnUse">
<stop stop-color="#7DC242"/>
<stop offset="0.3021" stop-color="#45C7F4"/>
<stop offset="0.6427" stop-color="#ED4D9B"/>
<stop offset="1" stop-color="#F68B1F"/>
</linearGradient>
</defs>
</svg>
