<svg width="189" height="59" viewBox="0 0 189 59" fill="none" xmlns="http://www.w3.org/2000/svg">
<path d="M182.369 16.081C182.292 16.2337 180.316 20.4711 175.356 21.4446C172.043 22.0935 169.37 20.9292 167.607 19.1541C166.948 18.486 166.25 17.6271 165.611 16.4819L180.219 8.69428C179.405 1.4793 170.164 -1.32653 162.395 2.16644C154.355 5.79302 152.243 13.3707 155.072 19.9558C157.881 26.5218 165.844 29.3658 173.419 25.8919C178.998 23.3533 182.486 18.1997 182.621 15.8902C182.641 15.8329 182.544 15.7375 182.369 16.081ZM166.192 2.09009C168.188 1.89922 169.602 5.52579 170.261 9.95404C170.435 11.1374 170.532 11.9773 170.532 12.7599L165.262 15.7375C164.642 14.4014 164.119 12.7217 163.848 10.603C163.267 6.07932 164.41 2.24279 166.192 2.09009Z" fill="white"/>
<path d="M46.1176 3.19709C45.517 1.93733 44.3352 1.15475 43.7928 1.11658C43.7734 1.11658 43.7541 1.13566 43.8315 1.17384C43.8703 1.19293 44.8583 1.63193 45.0714 2.75808C45.2264 3.50248 44.9552 4.11328 44.5483 4.51411C44.3934 4.66681 44.1996 4.8195 43.9284 4.95312L42.1267 1.67011C40.4413 1.86098 39.802 3.94149 40.6156 5.69752C41.4487 7.51081 43.2116 7.98799 44.7421 7.35811C46.2532 6.70914 46.9312 4.91494 46.1176 3.19709ZM42.5529 5.35395C41.5068 5.48756 40.6156 5.22034 40.5769 4.8195C40.5382 4.36141 41.3712 4.05601 42.398 3.90332C42.6692 3.86514 42.8629 3.84605 43.0566 3.84605L43.7541 5.02946C43.4441 5.18216 43.0566 5.29669 42.5529 5.35395Z" fill="white"/>
<path d="M40.5002 16.0046H40.3064V16.73H37.9817V16.8636C39.0859 16.9972 40.3064 18.2378 40.3064 19.2495C40.3064 19.6121 40.3064 19.803 40.3064 19.803H40.5002V19.4022C40.5002 19.1922 40.6745 19.0395 40.8683 19.0395H45.6534C46.0796 19.0395 46.4477 18.6959 46.4477 18.2569V16.73V16.1192H46.2539V16.5009C46.2539 16.6154 46.1571 16.73 46.0215 16.73H40.5002V16.0046Z" fill="white"/>
<path d="M46.2626 8.02612V8.40787C46.2626 8.52239 46.1658 8.63692 46.0301 8.63692C46.0301 8.63692 42.5043 8.63692 42.1362 8.63692C41.6325 8.63692 40.2958 8.73235 40.2958 10.1639C40.2958 11.061 41.1482 12.0535 41.4969 12.4162H38.0873H37.9904H36.9636C37.3898 13.1415 37.6998 14.0959 37.8935 15.2984H38.0873V14.9739C38.0873 14.8212 38.2035 14.7067 38.3585 14.7067H46.0495C46.1658 14.7067 46.282 14.8021 46.282 14.9357V15.3175H46.4757V14.7067V12.3971V11.7863H46.282V12.1681C46.282 12.2826 46.1851 12.3971 46.0495 12.3971H41.8843C41.6325 12.1299 41.1675 11.6336 41.1675 11.3855C41.1675 11.0228 41.4775 10.9465 41.71 10.9465C42.0587 10.9465 46.0495 10.9465 46.0495 10.9465C46.1658 10.9465 46.282 11.0419 46.282 11.1755V11.5573H46.4757V10.9465V8.63692V8.02612H46.2626Z" fill="white"/>
<path d="M109.612 8.50332C108.469 8.06431 106.744 7.35809 106.88 5.0867C106.996 3.31159 108.275 1.44104 111.22 1.44104C114.126 1.44104 114.707 3.55972 114.823 6.06015C114.823 9.38134 111.278 10.3548 107.732 11.4237C102.269 13.0843 99.0141 14.5349 97.2705 17.3407C100.564 17.627 103.858 18.047 107.19 18.5814C107.926 16.3673 109.553 14.7258 111.316 12.8361C112.266 11.8245 114.068 9.78217 114.862 8.35062C114.862 9.53403 114.862 15.3938 114.862 19.9366C118.33 20.6046 121.856 21.349 125.421 22.0935C125.421 19.7457 125.421 16.31 125.421 12.2062C125.421 3.02528 117.865 0.601196 111.142 0.601196C103.431 0.601196 95.8369 3.86512 97.8324 8.94233C99.5372 13.2942 107.849 11.0992 109.612 8.50332Z" fill="white"/>
<path d="M67.6005 20.1275L63.0089 3.08255C62.7183 2.1091 63.0864 1.5174 63.7838 1.5174H65.0625L64.9075 0.963867H49.4473L49.6023 1.5174H50.9778C51.7334 1.5174 52.1983 2.07093 52.3533 2.66263L58.0298 23.7541C61.2846 22.2843 64.4619 21.0818 67.6005 20.1275Z" fill="white"/>
<path d="M93.4064 2.96803L89.6287 16.9781C89.8999 16.9781 90.1517 16.9781 90.4229 16.9781L94.22 2.87259C94.3944 2.18545 94.9368 1.5174 95.7892 1.5174H97.0291L97.1841 0.963867H91.4497L91.2947 1.5174H92.5733C93.4451 1.5174 93.6195 2.20454 93.4064 2.96803Z" fill="white"/>
<path d="M69.4025 1.5174C70.158 1.5174 70.6229 2.07093 70.7779 2.66263L72.9283 10.6602L70.6036 19.2876C70.8942 19.2113 71.1654 19.1349 71.456 19.0777L73.3158 12.149L74.9819 18.3142C78.4109 17.6652 81.8011 17.2644 85.172 17.0926L81.3943 3.08255C81.1037 2.1091 81.4718 1.5174 82.1692 1.5174H83.4478L83.2928 0.963867H67.8333L67.9882 1.5174H69.4025V1.5174Z" fill="white"/>
<path d="M0.615723 37.2297C2.9212 39.0239 13.1893 49.8464 40.6031 44.1774C70.1674 38.0504 77.7426 21.1582 106.203 25.0711C103.142 22.3989 88.9212 18.276 69.0825 24.174C51.743 29.3466 28.3589 41.3716 0.615723 37.2297Z" fill="url(#paint0_linear)"/>
<path d="M9.15356 49.1973C11.459 50.9915 25.6987 61.9476 49.1603 56.8513C69.6965 52.404 72.6413 32.3814 101.489 28.2395C93.2549 26.3117 80.4877 30.0528 70.3164 36.1607C54.8756 45.4371 42.2439 56.4504 9.15356 49.1973Z" fill="url(#paint1_linear)"/>
<path d="M140.465 31.9233C140.504 31.9233 140.562 31.9042 140.601 31.9042C140.64 31.9042 140.698 31.9042 140.737 31.9042C140.775 31.9042 140.834 31.9042 140.872 31.9042C140.93 31.9042 140.969 31.9042 141.008 31.9233V33.5266C141.085 33.4121 141.182 33.3166 141.337 33.2403C141.492 33.1639 141.667 33.1067 141.86 33.1067C142.035 33.1067 142.209 33.1258 142.345 33.183C142.5 33.2403 142.616 33.3357 142.732 33.4502C142.848 33.5648 142.926 33.7175 142.984 33.9083C143.042 34.0992 143.081 34.3092 143.081 34.5573C143.081 35.0536 142.945 35.4544 142.655 35.7407C142.364 36.027 141.957 36.1606 141.415 36.1606C141.24 36.1606 141.066 36.1415 140.892 36.1034C140.717 36.0652 140.562 36.027 140.446 35.9888V31.9233H140.465ZM141.027 35.6262C141.105 35.6453 141.163 35.6644 141.24 35.6834C141.318 35.7025 141.395 35.7025 141.492 35.7025C141.628 35.7025 141.763 35.6834 141.88 35.6453C141.996 35.6071 142.112 35.5307 142.19 35.4544C142.286 35.359 142.345 35.2444 142.403 35.1108C142.461 34.9772 142.48 34.8054 142.48 34.6146C142.48 34.3092 142.422 34.061 142.306 33.8892C142.19 33.7175 142.015 33.622 141.744 33.622C141.647 33.622 141.57 33.6411 141.473 33.6602C141.395 33.6793 141.298 33.7365 141.24 33.7938C141.163 33.8511 141.105 33.9465 141.066 34.0419C141.027 34.1374 141.008 34.271 141.008 34.4237V35.6262H141.027Z" fill="white"/>
<path d="M145.115 36.1034C145.076 36.1034 145.057 36.1034 145.018 36.1034C144.979 36.1034 144.96 36.1034 144.921 36.1034C144.883 36.1034 144.844 36.1034 144.805 36.1034C144.766 36.1034 144.728 36.1034 144.708 36.1034L143.72 33.183C143.778 33.183 143.817 33.1639 143.875 33.1639C143.933 33.1639 143.972 33.1639 144.03 33.1639C144.088 33.1639 144.127 33.1639 144.205 33.1639C144.263 33.1639 144.321 33.1639 144.36 33.183L145.173 35.8934L146.026 33.183C146.103 33.1639 146.2 33.1639 146.316 33.1639C146.355 33.1639 146.413 33.1639 146.452 33.1639C146.51 33.1639 146.568 33.1639 146.607 33.183L145.464 36.6951C145.406 36.8478 145.348 36.9814 145.289 37.0959C145.231 37.2104 145.173 37.2868 145.096 37.344C145.018 37.4013 144.941 37.4586 144.844 37.4777C144.747 37.4967 144.65 37.5158 144.534 37.5158C144.437 37.5158 144.36 37.5158 144.263 37.4967C144.185 37.4777 144.108 37.4586 144.03 37.4395C144.03 37.344 144.03 37.2677 144.05 37.2104C144.069 37.1341 144.088 37.0768 144.127 37.0005C144.166 37.0196 144.205 37.0196 144.263 37.0387C144.321 37.0577 144.379 37.0577 144.456 37.0577C144.515 37.0577 144.553 37.0577 144.592 37.0387C144.631 37.0196 144.669 37.0196 144.708 36.9814C144.747 36.9623 144.786 36.905 144.824 36.8669C144.863 36.8287 144.883 36.7333 144.921 36.6569L145.115 36.1034Z" fill="white"/>
<path d="M149.164 31.9996C149.242 31.9996 149.319 31.9806 149.397 31.9806C149.474 31.9806 149.532 31.9615 149.61 31.9615C149.668 31.9615 149.745 31.9424 149.823 31.9424C149.9 31.9424 149.978 31.9424 150.075 31.9424C150.268 31.9424 150.462 31.9615 150.656 31.9996C150.85 32.0378 151.024 32.0951 151.179 32.1905C151.334 32.286 151.45 32.4196 151.547 32.5723C151.644 32.725 151.683 32.9349 151.683 33.1831C151.683 33.3358 151.663 33.4694 151.605 33.5839C151.547 33.6984 151.489 33.8129 151.411 33.9084C151.334 34.0038 151.256 34.0802 151.14 34.1565C151.043 34.2328 150.946 34.2901 150.85 34.3283L150.772 34.3665L151.973 36.0843C151.876 36.1034 151.76 36.1034 151.625 36.1034C151.528 36.1034 151.411 36.1034 151.315 36.0843L149.978 34.1947V34.1756L150.017 34.1565C150.113 34.1374 150.23 34.0992 150.346 34.042C150.462 34.0038 150.559 33.9275 150.675 33.8702C150.772 33.7938 150.85 33.6984 150.927 33.603C150.985 33.5075 151.024 33.3739 151.024 33.2212C151.024 32.954 150.946 32.744 150.772 32.6104C150.617 32.4768 150.385 32.4196 150.113 32.4196C150.055 32.4196 149.978 32.4196 149.939 32.4196C149.9 32.4196 149.823 32.4196 149.745 32.4386V36.0843C149.707 36.0843 149.648 36.0843 149.61 36.1034C149.571 36.1225 149.513 36.1034 149.455 36.1034C149.397 36.1034 149.358 36.1034 149.3 36.1034C149.242 36.1034 149.203 36.1034 149.145 36.0843V31.9996H149.164Z" fill="white"/>
<path d="M152.883 31.9996C153.019 31.9806 153.174 31.9615 153.348 31.9615C153.542 31.9424 153.716 31.9424 153.891 31.9424C154.627 31.9424 155.169 32.1333 155.518 32.4959C155.867 32.8586 156.061 33.3739 156.061 34.0611C156.061 34.7673 155.886 35.3017 155.518 35.6453C155.15 35.9889 154.608 36.1607 153.871 36.1607C153.697 36.1607 153.503 36.1607 153.329 36.1416C153.155 36.1225 153 36.1034 152.864 36.0843V31.9996H152.883ZM153.484 35.6262C153.542 35.6262 153.6 35.6453 153.678 35.6453C153.755 35.6453 153.833 35.6453 153.93 35.6453C154.162 35.6453 154.356 35.6262 154.549 35.569C154.743 35.5117 154.898 35.4353 155.034 35.3017C155.169 35.1872 155.266 35.0154 155.344 34.8055C155.421 34.5955 155.46 34.3474 155.46 34.0229C155.46 33.7366 155.421 33.4884 155.344 33.2976C155.266 33.0876 155.169 32.9349 155.034 32.8013C154.898 32.6677 154.743 32.5913 154.549 32.5341C154.356 32.4768 154.162 32.4577 153.93 32.4577C153.852 32.4577 153.775 32.4577 153.697 32.4577C153.62 32.4577 153.542 32.4577 153.465 32.4768V35.6262H153.484Z" fill="white"/>
<path d="M157.107 35.4735C157.242 35.5117 157.359 35.5499 157.514 35.5881C157.649 35.6262 157.824 35.6453 158.017 35.6453C158.327 35.6453 158.56 35.5881 158.734 35.4544C158.889 35.3208 158.967 35.149 158.967 34.9391C158.967 34.8246 158.947 34.7482 158.908 34.6719C158.87 34.5955 158.831 34.5383 158.753 34.481C158.695 34.4237 158.599 34.3665 158.502 34.3283C158.405 34.2901 158.289 34.2329 158.153 34.1756L157.824 34.042C157.707 34.0038 157.61 33.9465 157.514 33.8893C157.417 33.832 157.339 33.7748 157.281 33.6793C157.223 33.603 157.165 33.5075 157.126 33.4121C157.087 33.3167 157.068 33.1831 157.068 33.0304C157.068 32.6868 157.184 32.4196 157.417 32.2287C157.649 32.0378 157.998 31.9424 158.424 31.9424C158.618 31.9424 158.792 31.9615 158.947 31.9806C159.122 32.0187 159.257 32.0569 159.393 32.0951C159.373 32.2478 159.335 32.4196 159.257 32.5723C159.16 32.5341 159.025 32.4959 158.889 32.4768C158.753 32.4386 158.599 32.4387 158.424 32.4387C158.172 32.4387 157.998 32.4959 157.862 32.5913C157.727 32.6868 157.669 32.8395 157.669 33.0304C157.669 33.1067 157.688 33.1831 157.727 33.2403C157.765 33.2976 157.804 33.3548 157.862 33.4121C157.92 33.4503 157.979 33.5075 158.056 33.5457C158.134 33.5839 158.211 33.6221 158.289 33.6411L158.618 33.7748C158.773 33.832 158.908 33.9084 159.025 33.9656C159.141 34.0229 159.238 34.1183 159.335 34.1947C159.412 34.2901 159.49 34.3856 159.528 34.5192C159.567 34.6528 159.587 34.7864 159.587 34.9391C159.587 35.3208 159.451 35.6453 159.18 35.8553C158.908 36.0843 158.521 36.1988 158.037 36.1988C157.92 36.1988 157.804 36.1988 157.707 36.1798C157.61 36.1798 157.514 36.1607 157.436 36.1416C157.359 36.1225 157.281 36.1034 157.204 36.0843C157.126 36.0652 157.049 36.0461 156.971 36.008C156.971 35.9316 156.991 35.8362 157.029 35.7598C157.049 35.6453 157.068 35.5499 157.107 35.4735Z" fill="white"/>
<path d="M164.334 35.1491H162.765L162.474 36.0843C162.416 36.0843 162.377 36.1034 162.319 36.1034C162.261 36.1034 162.222 36.1034 162.164 36.1034C162.106 36.1034 162.048 36.1034 162.009 36.1034C161.951 36.1034 161.912 36.1034 161.874 36.0843L163.23 31.9997C163.288 31.9997 163.326 31.9806 163.385 31.9806C163.443 31.9806 163.501 31.9806 163.559 31.9806C163.617 31.9806 163.675 31.9806 163.733 31.9806C163.791 31.9806 163.85 31.9806 163.908 31.9997L165.244 36.0843C165.206 36.0843 165.148 36.1034 165.089 36.1034C165.031 36.1034 164.973 36.1034 164.915 36.1034C164.857 36.1034 164.818 36.1034 164.76 36.1034C164.702 36.1034 164.663 36.1034 164.605 36.0843L164.334 35.1491ZM162.92 34.6528H164.179L163.54 32.5723L162.92 34.6528Z" fill="white"/>
<path d="M166.097 33.183C166.136 33.183 166.174 33.1639 166.213 33.1639C166.252 33.1639 166.291 33.1639 166.329 33.1639C166.368 33.1639 166.407 33.1639 166.465 33.1639C166.504 33.1639 166.542 33.1639 166.581 33.183C166.601 33.2403 166.601 33.3166 166.62 33.4121C166.639 33.5075 166.639 33.5839 166.639 33.6411C166.717 33.5075 166.833 33.393 166.969 33.2976C167.104 33.2021 167.279 33.1639 167.472 33.1639C167.511 33.1639 167.53 33.1639 167.569 33.1639C167.608 33.1639 167.627 33.1639 167.647 33.1639C167.647 33.2021 167.666 33.2403 167.666 33.2785C167.666 33.3166 167.666 33.3548 167.666 33.393C167.666 33.4312 167.666 33.4884 167.666 33.5266C167.666 33.5839 167.647 33.622 167.647 33.6602C167.608 33.6602 167.589 33.6411 167.55 33.6411C167.511 33.6411 167.492 33.6411 167.472 33.6411C167.376 33.6411 167.279 33.6602 167.182 33.6793C167.085 33.6984 167.007 33.7556 166.93 33.832C166.852 33.9083 166.794 34.0038 166.756 34.1183C166.717 34.2519 166.697 34.4046 166.697 34.5955V36.0461C166.659 36.0461 166.601 36.0652 166.562 36.0652C166.504 36.0652 166.465 36.0652 166.426 36.0652C166.388 36.0652 166.329 36.0652 166.291 36.0652C166.233 36.0652 166.194 36.0652 166.136 36.0461V33.183H166.097Z" fill="white"/>
<path d="M168.654 33.6221H168.209L168.189 33.5457L169.177 32.4578H169.216V33.1831H169.972C169.991 33.2403 169.991 33.3167 169.991 33.393C169.991 33.4312 169.991 33.4694 169.991 33.5076C169.991 33.5457 169.991 33.5839 169.972 33.6221H169.216V34.9582C169.216 35.1109 169.216 35.2445 169.235 35.3399C169.255 35.4354 169.274 35.5117 169.313 35.5499C169.352 35.6072 169.39 35.6262 169.448 35.6453C169.507 35.6644 169.584 35.6644 169.662 35.6644C169.72 35.6644 169.797 35.6644 169.855 35.6453C169.913 35.6262 169.972 35.6262 170.01 35.6072C170.03 35.6835 170.049 35.7599 170.068 35.8362C170.068 35.9126 170.068 35.9889 170.068 36.0462C169.991 36.0653 169.913 36.0843 169.817 36.0843C169.739 36.0843 169.642 36.1034 169.545 36.1034C169.274 36.1034 169.061 36.0462 168.887 35.9126C168.732 35.7789 168.654 35.569 168.654 35.2445V33.6221V33.6221Z" fill="white"/>
<path d="M175.009 33.9847C175.047 33.9847 175.106 33.9656 175.144 33.9656C175.202 33.9656 175.241 33.9656 175.299 33.9656C175.357 33.9656 175.396 33.9656 175.454 33.9656C175.512 33.9656 175.551 33.9656 175.59 33.9847V35.9889C175.512 36.0271 175.415 36.0461 175.319 36.0843C175.222 36.1034 175.125 36.1225 175.028 36.1416C174.931 36.1607 174.815 36.1607 174.718 36.1797C174.621 36.1797 174.524 36.1988 174.427 36.1988C174.117 36.1988 173.846 36.1607 173.594 36.0652C173.343 35.9698 173.149 35.8362 172.974 35.6453C172.8 35.4735 172.684 35.2445 172.587 34.9963C172.49 34.7291 172.451 34.4428 172.451 34.1183C172.451 33.7938 172.49 33.4884 172.587 33.2403C172.684 32.9731 172.82 32.744 172.974 32.5723C173.149 32.3814 173.343 32.2478 173.594 32.1523C173.846 32.0569 174.098 31.9996 174.389 31.9996C174.602 31.9996 174.796 32.0187 174.97 32.0378C175.144 32.0569 175.28 32.1142 175.415 32.1523C175.415 32.2478 175.396 32.3241 175.357 32.4005C175.338 32.4768 175.299 32.5532 175.26 32.6295C175.144 32.5913 175.028 32.5723 174.912 32.5341C174.796 32.515 174.621 32.4959 174.447 32.4959C174.234 32.4959 174.059 32.5341 173.885 32.6104C173.711 32.6868 173.575 32.7822 173.459 32.9349C173.343 33.0685 173.246 33.2403 173.188 33.4503C173.129 33.6602 173.091 33.8893 173.091 34.1565C173.091 34.4237 173.129 34.6528 173.188 34.8627C173.246 35.0727 173.343 35.2254 173.478 35.359C173.594 35.4926 173.749 35.588 173.904 35.6453C174.079 35.7026 174.253 35.7407 174.466 35.7407C174.582 35.7407 174.699 35.7407 174.796 35.7217C174.892 35.7026 174.97 35.6835 175.028 35.6644V33.9847H175.009Z" fill="white"/>
<path d="M176.772 33.183C176.811 33.183 176.849 33.1639 176.888 33.1639C176.927 33.1639 176.966 33.1639 177.004 33.1639C177.043 33.1639 177.082 33.1639 177.14 33.1639C177.179 33.1639 177.218 33.1639 177.256 33.183C177.276 33.2403 177.276 33.3166 177.295 33.4121C177.314 33.5075 177.314 33.5839 177.314 33.6411C177.392 33.5075 177.508 33.393 177.644 33.2976C177.779 33.2021 177.954 33.1639 178.147 33.1639C178.186 33.1639 178.206 33.1639 178.244 33.1639C178.283 33.1639 178.302 33.1639 178.322 33.1639C178.322 33.2021 178.341 33.2403 178.341 33.2785C178.341 33.3166 178.341 33.3548 178.341 33.393C178.341 33.4312 178.341 33.4884 178.341 33.5266C178.341 33.5839 178.322 33.622 178.322 33.6602C178.283 33.6602 178.264 33.6411 178.225 33.6411C178.186 33.6411 178.167 33.6411 178.147 33.6411C178.051 33.6411 177.954 33.6602 177.857 33.6793C177.76 33.6984 177.683 33.7556 177.605 33.832C177.528 33.9083 177.469 34.0038 177.431 34.1183C177.392 34.2519 177.373 34.4046 177.373 34.5955V36.0461C177.334 36.0461 177.276 36.0652 177.237 36.0652C177.179 36.0652 177.14 36.0652 177.101 36.0652C177.063 36.0652 177.004 36.0652 176.966 36.0652C176.908 36.0652 176.869 36.0652 176.811 36.0461V33.183H176.772Z" fill="white"/>
<path d="M180.317 36.1606C180.085 36.1606 179.891 36.1225 179.717 36.0461C179.542 35.9698 179.407 35.8553 179.291 35.7216C179.174 35.588 179.097 35.4162 179.039 35.2445C178.981 35.0536 178.961 34.8627 178.961 34.6337C178.961 34.4237 178.981 34.2137 179.039 34.0229C179.097 33.832 179.174 33.6793 179.291 33.5457C179.407 33.4121 179.542 33.2976 179.717 33.2212C179.891 33.1449 180.085 33.1067 180.317 33.1067C180.55 33.1067 180.743 33.1449 180.918 33.2212C181.092 33.2976 181.228 33.4121 181.344 33.5457C181.46 33.6793 181.538 33.8511 181.596 34.0229C181.654 34.2137 181.673 34.4046 181.673 34.6337C181.673 34.8436 181.654 35.0536 181.596 35.2445C181.538 35.4353 181.46 35.588 181.344 35.7216C181.228 35.8553 181.092 35.9698 180.918 36.0461C180.763 36.1225 180.55 36.1606 180.317 36.1606ZM180.317 35.7216C180.589 35.7216 180.782 35.6262 180.898 35.4353C181.034 35.2445 181.092 34.9772 181.092 34.6528C181.092 34.3092 181.034 34.0611 180.898 33.8702C180.763 33.6793 180.569 33.5839 180.317 33.5839C180.046 33.5839 179.852 33.6793 179.736 33.8702C179.62 34.0611 179.542 34.3283 179.542 34.6528C179.542 34.9963 179.6 35.2445 179.736 35.4353C179.852 35.6262 180.065 35.7216 180.317 35.7216Z" fill="white"/>
<path d="M182.7 33.183C182.739 33.183 182.797 33.1639 182.836 33.1639C182.894 33.1639 182.933 33.1639 182.971 33.1639C183.01 33.1639 183.068 33.1639 183.107 33.1639C183.165 33.1639 183.204 33.1639 183.243 33.183V34.7864C183.243 34.9772 183.262 35.1108 183.301 35.2445C183.34 35.3781 183.378 35.4544 183.456 35.5308C183.533 35.6071 183.611 35.6453 183.708 35.6644C183.804 35.6835 183.921 35.7025 184.056 35.7025C184.25 35.7025 184.424 35.6835 184.56 35.6453V33.2021C184.599 33.2021 184.657 33.183 184.696 33.183C184.754 33.183 184.792 33.183 184.831 33.183C184.87 33.183 184.928 33.183 184.967 33.183C185.025 33.183 185.064 33.183 185.102 33.2021V36.027C184.967 36.0652 184.812 36.1034 184.618 36.1416C184.424 36.1797 184.231 36.1988 184.037 36.1988C183.843 36.1988 183.669 36.1797 183.494 36.1416C183.32 36.1034 183.185 36.0461 183.049 35.9507C182.913 35.8552 182.816 35.7216 182.758 35.5308C182.681 35.359 182.642 35.1108 182.642 34.8245V33.183H182.7Z" fill="white"/>
<path d="M186.342 33.1831C186.381 33.1831 186.42 33.164 186.458 33.164C186.497 33.164 186.536 33.164 186.575 33.164C186.613 33.164 186.652 33.164 186.691 33.164C186.729 33.164 186.768 33.164 186.807 33.1831C186.807 33.1831 186.807 33.2213 186.826 33.2595C186.826 33.2976 186.846 33.3358 186.846 33.3931C186.846 33.4312 186.865 33.4885 186.865 33.5267C186.865 33.5649 186.865 33.603 186.865 33.603C186.904 33.5458 186.943 33.4885 187.001 33.4312C187.059 33.374 187.117 33.3167 187.194 33.2786C187.272 33.2404 187.349 33.2022 187.446 33.164C187.543 33.1449 187.64 33.1259 187.756 33.1259C187.931 33.1259 188.086 33.1449 188.241 33.2022C188.396 33.2595 188.512 33.3549 188.628 33.4694C188.725 33.5839 188.822 33.7366 188.88 33.9275C188.938 34.1184 188.977 34.3283 188.977 34.5765C188.977 35.0728 188.841 35.4736 188.57 35.7599C188.299 36.0462 187.911 36.1798 187.408 36.1798C187.33 36.1798 187.233 36.1798 187.156 36.1607C187.078 36.1416 186.981 36.1416 186.923 36.1226V37.4587C186.884 37.4587 186.826 37.4777 186.768 37.4777C186.71 37.4777 186.671 37.4777 186.633 37.4777C186.594 37.4777 186.536 37.4777 186.497 37.4777C186.439 37.4777 186.4 37.4777 186.361 37.4587V33.1831H186.342ZM186.904 35.6263C186.981 35.6454 187.059 35.6645 187.136 35.6835C187.214 35.7026 187.311 35.7026 187.427 35.7026C187.563 35.7026 187.698 35.6835 187.814 35.6454C187.931 35.6072 188.027 35.5308 188.105 35.4354C188.182 35.34 188.26 35.2255 188.299 35.0918C188.337 34.9582 188.376 34.7864 188.376 34.5956C188.376 34.2902 188.318 34.0611 188.202 33.8703C188.086 33.6985 187.911 33.603 187.64 33.603C187.543 33.603 187.446 33.6221 187.369 33.6603C187.291 33.6985 187.194 33.7366 187.136 33.813C187.059 33.8893 187.02 33.9657 186.962 34.0802C186.923 34.1757 186.904 34.3093 186.904 34.462V35.6263V35.6263Z" fill="white"/>
<path d="M149.619 0.963867L149.464 1.5174H150.743C151.596 1.5174 151.77 2.20454 151.557 2.96803L145.551 25.3001L139.564 3.08255C139.274 2.1091 139.642 1.5174 140.339 1.5174H141.618L141.463 0.963867H126.022L126.177 1.5174H127.553C128.308 1.5174 128.773 2.07093 128.928 2.66263L134.682 24.0594C138.402 24.7848 142.219 25.491 146.113 26.1018L152.371 2.87259C152.545 2.18545 153.087 1.5174 153.94 1.5174H155.18L155.335 0.963867H149.619V0.963867Z" fill="white"/>
<defs>
<linearGradient id="paint0_linear" x1="-4.92228" y1="47.639" x2="116.919" y2="13.9109" gradientUnits="userSpaceOnUse">
<stop stop-color="#80C242"/>
<stop offset="0.33" stop-color="#44C7F4"/>
<stop offset="0.67" stop-color="#ED4D9A"/>
<stop offset="1" stop-color="#F5891F"/>
</linearGradient>
<linearGradient id="paint1_linear" x1="0.555676" y1="60.7306" x2="122.396" y2="27.0025" gradientUnits="userSpaceOnUse">
<stop stop-color="#80C242"/>
<stop offset="0.33" stop-color="#44C7F4"/>
<stop offset="0.67" stop-color="#ED4D9A"/>
<stop offset="1" stop-color="#F5891F"/>
</linearGradient>
</defs>
</svg>
